<?xml version="1.0" encoding="UTF-8" standalone="no"?><svg xmlns="http://www.w3.org/2000/svg" xmlns:xlink="http://www.w3.org/1999/xlink" contentStyleType="text/css" height="527px" preserveAspectRatio="none" style="width:955px;height:527px;background:#FFFFFF;" version="1.1" viewBox="0 0 955 527" width="955px" zoomAndPan="magnify"><defs/><g><line style="stroke:#181818;stroke-width:0.5;stroke-dasharray:5.0,5.0;" x1="43" x2="43" y1="36.2969" y2="520.1719"/><line style="stroke:#181818;stroke-width:0.5;stroke-dasharray:5.0,5.0;" x1="199.5" x2="199.5" y1="36.2969" y2="520.1719"/><line style="stroke:#181818;stroke-width:0.5;stroke-dasharray:5.0,5.0;" x1="484" x2="484" y1="36.2969" y2="520.1719"/><line style="stroke:#181818;stroke-width:0.5;stroke-dasharray:5.0,5.0;" x1="836.5" x2="836.5" y1="36.2969" y2="520.1719"/><line style="stroke:#181818;stroke-width:0.5;stroke-dasharray:5.0,5.0;" x1="914.5" x2="914.5" y1="36.2969" y2="520.1719"/><rect fill="#E3E3E3" height="30.2969" rx="2.5" ry="2.5" style="stroke:#181818;stroke-width:0.5;" width="77" x="5" y="5"/><text fill="#000000" font-family="sans-serif" font-size="14" lengthAdjust="spacing" textLength="63" x="12" y="24.9951">End User</text><rect fill="#E3E3E3" height="30.2969" rx="2.5" ry="2.5" style="stroke:#181818;stroke-width:0.5;" width="140" x="129.5" y="5"/><text fill="#000000" font-family="sans-serif" font-size="14" lengthAdjust="spacing" textLength="126" x="136.5" y="24.9951">Device Application</text><rect fill="#E3E3E3" height="30.2969" rx="2.5" ry="2.5" style="stroke:#181818;stroke-width:0.5;" width="39" x="465" y="5"/><text fill="#000000" font-family="sans-serif" font-size="14" lengthAdjust="spacing" textLength="25" x="472" y="24.9951">LAA</text><rect fill="#E3E3E3" height="30.2969" rx="2.5" ry="2.5" style="stroke:#181818;stroke-width:0.5;" width="68" x="802.5" y="5"/><text fill="#000000" font-family="sans-serif" font-size="14" lengthAdjust="spacing" textLength="54" x="809.5" y="24.9951">SAM SD</text><rect fill="#E3E3E3" height="30.2969" rx="2.5" ry="2.5" style="stroke:#181818;stroke-width:0.5;" width="69" x="880.5" y="5"/><text fill="#000000" font-family="sans-serif" font-size="14" lengthAdjust="spacing" textLength="55" x="887.5" y="24.9951">SAM SM</text><polygon fill="#181818" points="187.5,61.1016,197.5,65.1016,187.5,69.1016,191.5,65.1016" style="stroke:#181818;stroke-width:1.0;"/><line style="stroke:#181818;stroke-width:1.0;" x1="43.5" x2="193.5" y1="65.1016" y2="65.1016"/><text fill="#000000" font-family="sans-serif" font-size="11" lengthAdjust="spacing" textLength="132" x="55.5" y="60.5073">installDeviceApplication</text><polygon fill="#181818" points="472.5,87.9063,482.5,91.9063,472.5,95.9063,476.5,91.9063" style="stroke:#181818;stroke-width:1.0;"/><line style="stroke:#181818;stroke-width:1.0;" x1="199.5" x2="478.5" y1="91.9063" y2="91.9063"/><text fill="#000000" font-family="sans-serif" font-size="11" lengthAdjust="spacing" textLength="261" x="211.5" y="87.312">install(sessionId, samSMFQDN, localScriptUri)</text><polygon fill="#181818" points="824.5,114.7109,834.5,118.7109,824.5,122.7109,828.5,118.7109" style="stroke:#181818;stroke-width:1.0;"/><line style="stroke:#181818;stroke-width:1.0;" x1="484.5" x2="830.5" y1="118.7109" y2="118.7109"/><text fill="#000000" font-family="sans-serif" font-size="11" lengthAdjust="spacing" textLength="181" x="570" y="114.1167">GET_DATA(SAMEligibilityInfoTag)</text><polygon fill="#181818" points="495.5,141.5156,485.5,145.5156,495.5,149.5156,491.5,145.5156" style="stroke:#181818;stroke-width:1.0;"/><line style="stroke:#181818;stroke-width:1.0;stroke-dasharray:2.0,2.0;" x1="489.5" x2="835.5" y1="145.5156" y2="145.5156"/><text fill="#000000" font-family="sans-serif" font-size="11" lengthAdjust="spacing" textLength="94" x="613.5" y="140.9214">SAMEligibilityInfo</text><polygon fill="#181818" points="824.5,168.3203,834.5,172.3203,824.5,176.3203,828.5,172.3203" style="stroke:#181818;stroke-width:1.0;"/><line style="stroke:#181818;stroke-width:1.0;" x1="484.5" x2="830.5" y1="172.3203" y2="172.3203"/><text fill="#000000" font-family="sans-serif" font-size="11" lengthAdjust="spacing" textLength="110" x="605.5" y="167.7261">GET_DATA(CRDTag)</text><polygon fill="#181818" points="495.5,195.125,485.5,199.125,495.5,203.125,491.5,199.125" style="stroke:#181818;stroke-width:1.0;"/><line style="stroke:#181818;stroke-width:1.0;stroke-dasharray:2.0,2.0;" x1="489.5" x2="835.5" y1="199.125" y2="199.125"/><text fill="#000000" font-family="sans-serif" font-size="11" lengthAdjust="spacing" textLength="23" x="649" y="194.5308">CRD</text><polygon fill="#181818" points="824.5,221.9297,834.5,225.9297,824.5,229.9297,828.5,225.9297" style="stroke:#181818;stroke-width:1.0;"/><line style="stroke:#181818;stroke-width:1.0;" x1="484.5" x2="830.5" y1="225.9297" y2="225.9297"/><text fill="#000000" font-family="sans-serif" font-size="11" lengthAdjust="spacing" textLength="106" x="607.5" y="221.3354">GET_DATA(CCITag)</text><polygon fill="#181818" points="495.5,248.7344,485.5,252.7344,495.5,256.7344,491.5,252.7344" style="stroke:#181818;stroke-width:1.0;"/><line style="stroke:#181818;stroke-width:1.0;stroke-dasharray:2.0,2.0;" x1="489.5" x2="835.5" y1="252.7344" y2="252.7344"/><text fill="#000000" font-family="sans-serif" font-size="11" lengthAdjust="spacing" textLength="19" x="651" y="248.1401">CCI</text><polygon fill="#181818" points="824.5,275.5391,834.5,279.5391,824.5,283.5391,828.5,279.5391" style="stroke:#181818;stroke-width:1.0;"/><line style="stroke:#181818;stroke-width:1.0;" x1="484.5" x2="830.5" y1="279.5391" y2="279.5391"/><text fill="#000000" font-family="sans-serif" font-size="11" lengthAdjust="spacing" textLength="142" x="589.5" y="274.9448">GET_DATA(SAMCertifTag)</text><polygon fill="#181818" points="495.5,302.3438,485.5,306.3438,495.5,310.3438,491.5,306.3438" style="stroke:#181818;stroke-width:1.0;"/><line style="stroke:#181818;stroke-width:1.0;stroke-dasharray:2.0,2.0;" x1="489.5" x2="835.5" y1="306.3438" y2="306.3438"/><text fill="#000000" font-family="sans-serif" font-size="11" lengthAdjust="spacing" textLength="62" x="629.5" y="301.7495">SAMCertifs</text><line style="stroke:#181818;stroke-width:1.0;" x1="484.5" x2="526.5" y1="333.1484" y2="333.1484"/><line style="stroke:#181818;stroke-width:1.0;" x1="526.5" x2="526.5" y1="333.1484" y2="346.1484"/><line style="stroke:#181818;stroke-width:1.0;" x1="485.5" x2="526.5" y1="346.1484" y2="346.1484"/><polygon fill="#181818" points="495.5,342.1484,485.5,346.1484,495.5,350.1484,491.5,346.1484" style="stroke:#181818;stroke-width:1.0;"/><text fill="#000000" font-family="sans-serif" font-size="11" lengthAdjust="spacing" textLength="338" x="491.5" y="328.5542">initiateInstallation(sessionId, SAMEligibilityInfos, DeviceInfo)</text><polygon fill="#181818" points="54.5,368.9531,44.5,372.9531,54.5,376.9531,50.5,372.9531" style="stroke:#181818;stroke-width:1.0;"/><line style="stroke:#181818;stroke-width:1.0;" x1="48.5" x2="483.5" y1="372.9531" y2="372.9531"/><text fill="#000000" font-family="sans-serif" font-size="11" lengthAdjust="spacing" textLength="219" x="154.5" y="368.3589">requestUserConsentOrAuthentification</text><rect fill="#FAFAFA" height="20" style="stroke:#181818;stroke-width:0.5;" width="37" x="25" y="385.9531"/><text fill="#000000" font-family="sans-serif" font-size="11" lengthAdjust="spacing" textLength="29" x="29" y="400.1636">allow</text><polygon fill="#181818" points="472.5,413.7578,482.5,417.7578,472.5,421.7578,476.5,417.7578" style="stroke:#181818;stroke-width:1.0;"/><line style="stroke:#181818;stroke-width:1.0;stroke-dasharray:2.0,2.0;" x1="43.5" x2="478.5" y1="417.7578" y2="417.7578"/><rect fill="#FAFAFA" height="20" style="stroke:#181818;stroke-width:0.5;" width="400" x="460" y="430.7578"/><text fill="#000000" font-family="sans-serif" font-size="11" lengthAdjust="spacing" textLength="210" x="555.25" y="444.9683">Process executeScript(localScriptUri)</text><polygon fill="#181818" points="210.5,471.3672,200.5,475.3672,210.5,479.3672,206.5,475.3672" style="stroke:#181818;stroke-width:1.0;"/><line style="stroke:#181818;stroke-width:1.0;stroke-dasharray:2.0,2.0;" x1="204.5" x2="483.5" y1="475.3672" y2="475.3672"/><text fill="#000000" font-family="sans-serif" font-size="11" lengthAdjust="spacing" textLength="240" x="222" y="470.7729">notification(sessionId, aspSDAid, INSTALL)</text><polygon fill="#181818" points="903,498.1719,913,502.1719,903,506.1719,907,502.1719" style="stroke:#181818;stroke-width:1.0;"/><line style="stroke:#181818;stroke-width:1.0;stroke-dasharray:2.0,2.0;" x1="484.5" x2="909" y1="502.1719" y2="502.1719"/><text fill="#000000" font-family="sans-serif" font-size="11" lengthAdjust="spacing" textLength="240" x="579.75" y="497.5776">notification(sessionId, aspSDAid, INSTALL)</text><!--SRC=[bL9BR-8m4BxxLuno0WaElQAgafNGLIJeRZVql7BD14PhFAbj-jXVltQYWjK2LNDo_3qyyyriQOtGCeT7VXN-BzbEERK3Zqzxj1gNwBtQe3IqiQ3H1dGdMD8vVhbb6nhwXt1rbL4i1poDxDYotZhU8GItnmmnrA8XYpuu5N3p1fuDhOKevdOD3nvT0TCRA2fy9eqWkywGLe7O5Z03iZueOmOmmyH9VlHPI7cKZNniE2BrUW9UxPhbxNrrDm73Mfb6E-h2WwEnI9fKGYENq5JfsH_prPzAhkGeNirZMlH8Xi9RRLjUgSrO7AZJmvEVcG2NdClVrJch25rKblLPPLb_qKs9Bb1xeOc1u4KHRuR9z8UKAGMA4wo7RFl8yu0_1-0dC4mf_On17FCuZdu6BgsT3-ctPElZLlvqSX-syK3j-xXTsZpWPtIPU0Qn3dxfNQ-dqmo9J-MArC7aa8Y0zFroh6FnWA-ezm67THXzN0sCZhtJU_7dLpMo3lNckIZVDPMaUAhlcfLSBCQvLr_Jydlw_m00]--></g></svg>