<?xml version="1.0" encoding="UTF-8" standalone="no"?><svg xmlns="http://www.w3.org/2000/svg" xmlns:xlink="http://www.w3.org/1999/xlink" contentStyleType="text/css" height="580px" preserveAspectRatio="none" style="width:1096px;height:580px;background:#FFFFFF;" version="1.1" viewBox="0 0 1096 580" width="1096px" zoomAndPan="magnify"><defs/><g><line style="stroke:#181818;stroke-width:0.5;stroke-dasharray:5.0,5.0;" x1="43" x2="43" y1="36.2969" y2="573.7813"/><line style="stroke:#181818;stroke-width:0.5;stroke-dasharray:5.0,5.0;" x1="199" x2="199" y1="36.2969" y2="573.7813"/><line style="stroke:#181818;stroke-width:0.5;stroke-dasharray:5.0,5.0;" x1="513" x2="513" y1="36.2969" y2="573.7813"/><line style="stroke:#181818;stroke-width:0.5;stroke-dasharray:5.0,5.0;" x1="718.5" x2="718.5" y1="36.2969" y2="573.7813"/><line style="stroke:#181818;stroke-width:0.5;stroke-dasharray:5.0,5.0;" x1="875" x2="875" y1="36.2969" y2="573.7813"/><rect fill="#E3E3E3" height="30.2969" rx="2.5" ry="2.5" style="stroke:#181818;stroke-width:0.5;" width="77" x="5" y="5"/><text fill="#000000" font-family="sans-serif" font-size="14" lengthAdjust="spacing" textLength="63" x="12" y="24.9951">End User</text><rect fill="#E3E3E3" height="30.2969" rx="2.5" ry="2.5" style="stroke:#181818;stroke-width:0.5;" width="139" x="130" y="5"/><text fill="#000000" font-family="sans-serif" font-size="14" lengthAdjust="spacing" textLength="125" x="137" y="24.9951">Device application</text><rect fill="#E3E3E3" height="30.2969" rx="2.5" ry="2.5" style="stroke:#181818;stroke-width:0.5;" width="39" x="494" y="5"/><text fill="#000000" font-family="sans-serif" font-size="14" lengthAdjust="spacing" textLength="25" x="501" y="24.9951">LAA</text><rect fill="#E3E3E3" height="30.2969" rx="2.5" ry="2.5" style="stroke:#181818;stroke-width:0.5;" width="68" x="684.5" y="5"/><text fill="#000000" font-family="sans-serif" font-size="14" lengthAdjust="spacing" textLength="54" x="691.5" y="24.9951">SAM SD</text><rect fill="#E3E3E3" height="30.2969" rx="2.5" ry="2.5" style="stroke:#181818;stroke-width:0.5;" width="69" x="841" y="5"/><text fill="#000000" font-family="sans-serif" font-size="14" lengthAdjust="spacing" textLength="55" x="848" y="24.9951">SAM SM</text><polygon fill="#181818" points="187.5,61.1016,197.5,65.1016,187.5,69.1016,191.5,65.1016" style="stroke:#181818;stroke-width:1.0;"/><line style="stroke:#181818;stroke-width:1.0;" x1="43.5" x2="193.5" y1="65.1016" y2="65.1016"/><text fill="#000000" font-family="sans-serif" font-size="11" lengthAdjust="spacing" textLength="132" x="55.5" y="60.5073">installDeviceApplication</text><polygon fill="#181818" points="501.5,87.9063,511.5,91.9063,501.5,95.9063,505.5,91.9063" style="stroke:#181818;stroke-width:1.0;"/><line style="stroke:#181818;stroke-width:1.0;" x1="199.5" x2="507.5" y1="91.9063" y2="91.9063"/><text fill="#000000" font-family="sans-serif" font-size="11" lengthAdjust="spacing" textLength="290" x="211.5" y="87.312">install(sessionId, samSMFQDN, localScriptUri=null)</text><polygon fill="#181818" points="706.5,114.7109,716.5,118.7109,706.5,122.7109,710.5,118.7109" style="stroke:#181818;stroke-width:1.0;"/><line style="stroke:#181818;stroke-width:1.0;" x1="513.5" x2="712.5" y1="118.7109" y2="118.7109"/><text fill="#000000" font-family="sans-serif" font-size="11" lengthAdjust="spacing" textLength="181" x="525.5" y="114.1167">GET_DATA(SAMEligibilityInfoTag)</text><polygon fill="#181818" points="524.5,141.5156,514.5,145.5156,524.5,149.5156,520.5,145.5156" style="stroke:#181818;stroke-width:1.0;"/><line style="stroke:#181818;stroke-width:1.0;stroke-dasharray:2.0,2.0;" x1="518.5" x2="717.5" y1="145.5156" y2="145.5156"/><text fill="#000000" font-family="sans-serif" font-size="11" lengthAdjust="spacing" textLength="94" x="569" y="140.9214">SAMEligibilityInfo</text><polygon fill="#181818" points="706.5,168.3203,716.5,172.3203,706.5,176.3203,710.5,172.3203" style="stroke:#181818;stroke-width:1.0;"/><line style="stroke:#181818;stroke-width:1.0;" x1="513.5" x2="712.5" y1="172.3203" y2="172.3203"/><text fill="#000000" font-family="sans-serif" font-size="11" lengthAdjust="spacing" textLength="110" x="561" y="167.7261">GET_DATA(CRDTag)</text><polygon fill="#181818" points="524.5,195.125,514.5,199.125,524.5,203.125,520.5,199.125" style="stroke:#181818;stroke-width:1.0;"/><line style="stroke:#181818;stroke-width:1.0;stroke-dasharray:2.0,2.0;" x1="518.5" x2="717.5" y1="199.125" y2="199.125"/><text fill="#000000" font-family="sans-serif" font-size="11" lengthAdjust="spacing" textLength="23" x="604.5" y="194.5308">CRD</text><polygon fill="#181818" points="706.5,221.9297,716.5,225.9297,706.5,229.9297,710.5,225.9297" style="stroke:#181818;stroke-width:1.0;"/><line style="stroke:#181818;stroke-width:1.0;" x1="513.5" x2="712.5" y1="225.9297" y2="225.9297"/><text fill="#000000" font-family="sans-serif" font-size="11" lengthAdjust="spacing" textLength="106" x="563" y="221.3354">GET_DATA(CCITag)</text><polygon fill="#181818" points="524.5,248.7344,514.5,252.7344,524.5,256.7344,520.5,252.7344" style="stroke:#181818;stroke-width:1.0;"/><line style="stroke:#181818;stroke-width:1.0;stroke-dasharray:2.0,2.0;" x1="518.5" x2="717.5" y1="252.7344" y2="252.7344"/><text fill="#000000" font-family="sans-serif" font-size="11" lengthAdjust="spacing" textLength="19" x="606.5" y="248.1401">CCI</text><polygon fill="#181818" points="706.5,275.5391,716.5,279.5391,706.5,283.5391,710.5,279.5391" style="stroke:#181818;stroke-width:1.0;"/><line style="stroke:#181818;stroke-width:1.0;" x1="513.5" x2="712.5" y1="279.5391" y2="279.5391"/><text fill="#000000" font-family="sans-serif" font-size="11" lengthAdjust="spacing" textLength="142" x="545" y="274.9448">GET_DATA(SAMCertifTag)</text><polygon fill="#181818" points="524.5,302.3438,514.5,306.3438,524.5,310.3438,520.5,306.3438" style="stroke:#181818;stroke-width:1.0;"/><line style="stroke:#181818;stroke-width:1.0;stroke-dasharray:2.0,2.0;" x1="518.5" x2="717.5" y1="306.3438" y2="306.3438"/><text fill="#000000" font-family="sans-serif" font-size="11" lengthAdjust="spacing" textLength="62" x="585" y="301.7495">SAMCertifs</text><polygon fill="#181818" points="863.5,329.1484,873.5,333.1484,863.5,337.1484,867.5,333.1484" style="stroke:#181818;stroke-width:1.0;"/><line style="stroke:#181818;stroke-width:1.0;" x1="513.5" x2="869.5" y1="333.1484" y2="333.1484"/><text fill="#000000" font-family="sans-serif" font-size="11" lengthAdjust="spacing" textLength="338" x="525.5" y="328.5542">initiateInstallation(sessionId, SAMEligibilityInfos, DeviceInfo)</text><line style="stroke:#181818;stroke-width:1.0;" x1="875.5" x2="917.5" y1="359.9531" y2="359.9531"/><line style="stroke:#181818;stroke-width:1.0;" x1="917.5" x2="917.5" y1="359.9531" y2="372.9531"/><line style="stroke:#181818;stroke-width:1.0;" x1="876.5" x2="917.5" y1="372.9531" y2="372.9531"/><polygon fill="#181818" points="886.5,368.9531,876.5,372.9531,886.5,376.9531,882.5,372.9531" style="stroke:#181818;stroke-width:1.0;"/><text fill="#000000" font-family="sans-serif" font-size="11" lengthAdjust="spacing" textLength="207" x="882.5" y="355.3589">retrieveOrGenerateScript(sessionId)</text><polygon fill="#181818" points="524.5,395.7578,514.5,399.7578,524.5,403.7578,520.5,399.7578" style="stroke:#181818;stroke-width:1.0;"/><line style="stroke:#181818;stroke-width:1.0;stroke-dasharray:2.0,2.0;" x1="518.5" x2="874.5" y1="399.7578" y2="399.7578"/><text fill="#000000" font-family="sans-serif" font-size="11" lengthAdjust="spacing" textLength="205" x="592" y="395.1636">samEligibilityResponse(gpseramUri)</text><polygon fill="#181818" points="54.5,422.5625,44.5,426.5625,54.5,430.5625,50.5,426.5625" style="stroke:#181818;stroke-width:1.0;"/><line style="stroke:#181818;stroke-width:1.0;" x1="48.5" x2="512.5" y1="426.5625" y2="426.5625"/><text fill="#000000" font-family="sans-serif" font-size="11" lengthAdjust="spacing" textLength="219" x="169" y="421.9683">requestUserConsentOrAuthentification</text><rect fill="#FAFAFA" height="20" style="stroke:#181818;stroke-width:0.5;" width="37" x="25" y="439.5625"/><text fill="#000000" font-family="sans-serif" font-size="11" lengthAdjust="spacing" textLength="29" x="29" y="453.7729">allow</text><polygon fill="#181818" points="501.5,467.3672,511.5,471.3672,501.5,475.3672,505.5,471.3672" style="stroke:#181818;stroke-width:1.0;"/><line style="stroke:#181818;stroke-width:1.0;stroke-dasharray:2.0,2.0;" x1="43.5" x2="507.5" y1="471.3672" y2="471.3672"/><rect fill="#FAFAFA" height="20" style="stroke:#181818;stroke-width:0.5;" width="411" x="489" y="484.3672"/><text fill="#000000" font-family="sans-serif" font-size="11" lengthAdjust="spacing" textLength="256" x="566.5" y="498.5776">Process executeGPSERAMScript(gpseramUri)</text><polygon fill="#181818" points="210.5,524.9766,200.5,528.9766,210.5,532.9766,206.5,528.9766" style="stroke:#181818;stroke-width:1.0;"/><line style="stroke:#181818;stroke-width:1.0;stroke-dasharray:2.0,2.0;" x1="204.5" x2="512.5" y1="528.9766" y2="528.9766"/><text fill="#000000" font-family="sans-serif" font-size="11" lengthAdjust="spacing" textLength="240" x="236.5" y="524.3823">notification(sessionId, aspSDAid, INSTALL)</text><polygon fill="#181818" points="863.5,551.7813,873.5,555.7813,863.5,559.7813,867.5,555.7813" style="stroke:#181818;stroke-width:1.0;"/><line style="stroke:#181818;stroke-width:1.0;stroke-dasharray:2.0,2.0;" x1="513.5" x2="869.5" y1="555.7813" y2="555.7813"/><text fill="#000000" font-family="sans-serif" font-size="11" lengthAdjust="spacing" textLength="240" x="574.5" y="551.187">notification(sessionId, aspSDAid, INSTALL)</text><!--SRC=[ZLF1Rjim3BthAmYVOY0vz5fi0mGx3Gp4RHUdvq5r68UOB7cIdBRx-adnQgjeaiqdIUHx9D-Z3xH3s6ljdlKhipz9TSA85Yp-wb7LMAArea4kgL5Get9epcHnO_JBdLQkejy8DpTHYj8EpqTQhNHzCBf5SAR7A29fZv8KMcU4m-ODh9QqOy2IfTh1aqMJmE8R93aUgKOGNIUf5ewqIk0MI5adf1o2V8gni_cUPytv19jPFx6F5BivMD5MvTtt_7uEKjT2LhMXpZqP-gfwALCMWA6FYfTGvQ7sQhdzaVCjd_cdfTUCdacIUolKNcz5ax8nTJ7M_Pm9S8qvs-INg7peAZ8hBYApuX_JP6WSxQyCCIHOblYNP28g1ql8aRUo63G-IHyB_La3EuV1hN19WOra7uaDEaDun0UpGeLXMmQF9l8qWexjUcEZUXkqdLOMPqtdLqkqtk2KJHvCEnVg-OMtBbop057kmV3U7Vo1zkzxPiBEWpwYYS2tu0VNBoVMBuj55F6bOaIGRpxEo21yZqRNVY30LwnxXwl7QhdXvTzHuwxHavx8tlk__9luhB7bs0jXkohdv4_5VRNbwtKQSqtI_p_-3m00]--></g></svg>