<?xml version="1.0" encoding="us-ascii" standalone="no"?><svg xmlns="http://www.w3.org/2000/svg" xmlns:xlink="http://www.w3.org/1999/xlink" contentStyleType="text/css" height="322px" preserveAspectRatio="none" style="width:846px;height:322px;background:#FFFFFF;" version="1.1" viewBox="0 0 846 322" width="846px" zoomAndPan="magnify"><defs/><g><line style="stroke:#181818;stroke-width:0.5;" x1="43" x2="43" y1="36.2969" y2="315.5391"/><line style="stroke:#181818;stroke-width:0.5;" x1="286" x2="286" y1="36.2969" y2="315.5391"/><line style="stroke:#181818;stroke-width:0.5;" x1="490" x2="490" y1="36.2969" y2="315.5391"/><line style="stroke:#181818;stroke-width:0.5;" x1="567" x2="567" y1="36.2969" y2="315.5391"/><line style="stroke:#181818;stroke-width:0.5;" x1="686" x2="686" y1="36.2969" y2="315.5391"/><line style="stroke:#181818;stroke-width:0.5;" x1="805" x2="805" y1="36.2969" y2="315.5391"/><rect fill="#E3E3E3" height="30.2969" rx="2.5" ry="2.5" style="stroke:#181818;stroke-width:0.5;" width="76" x="5" y="5"/><text fill="#000000" font-family="sans-serif" font-size="14" lengthAdjust="spacing" textLength="62" x="12" y="24.9951">End User</text><rect fill="#E3E3E3" height="30.2969" rx="2.5" ry="2.5" style="stroke:#181818;stroke-width:0.5;" width="42" x="265" y="5"/><text fill="#000000" font-family="sans-serif" font-size="14" lengthAdjust="spacing" textLength="28" x="272" y="24.9951">LAA</text><rect fill="#E3E3E3" height="30.2969" rx="2.5" ry="2.5" style="stroke:#181818;stroke-width:0.5;" width="66" x="457" y="5"/><text fill="#000000" font-family="sans-serif" font-size="14" lengthAdjust="spacing" textLength="52" x="464" y="24.9951">ASP SD</text><rect fill="#E3E3E3" height="30.2969" rx="2.5" ry="2.5" style="stroke:#181818;stroke-width:0.5;" width="69" x="533" y="5"/><text fill="#000000" font-family="sans-serif" font-size="14" lengthAdjust="spacing" textLength="55" x="540" y="24.9951">SAM SD</text><rect fill="#E3E3E3" height="30.2969" rx="2.5" ry="2.5" style="stroke:#181818;stroke-width:0.5;" width="148" x="612" y="5"/><text fill="#000000" font-family="sans-serif" font-size="14" lengthAdjust="spacing" textLength="134" x="619" y="24.9951">Device application</text><rect fill="#E3E3E3" height="30.2969" rx="2.5" ry="2.5" style="stroke:#181818;stroke-width:0.5;" width="70" x="770" y="5"/><text fill="#000000" font-family="sans-serif" font-size="14" lengthAdjust="spacing" textLength="56" x="777" y="24.9951">SAM SM</text><polygon fill="#181818" points="274,61.1016,284,65.1016,274,69.1016,278,65.1016" style="stroke:#181818;stroke-width:1.0;"/><line style="stroke:#181818;stroke-width:1.0;" x1="43" x2="280" y1="65.1016" y2="65.1016"/><text fill="#000000" font-family="sans-serif" font-size="11" lengthAdjust="spacing" textLength="206" x="61.5" y="60.5073">deleteSAMService(name,aspSDAid)</text><polygon fill="#181818" points="54,87.9063,44,91.9063,54,95.9063,50,91.9063" style="stroke:#181818;stroke-width:1.0;"/><line style="stroke:#181818;stroke-width:1.0;" x1="48" x2="285" y1="91.9063" y2="91.9063"/><text fill="#000000" font-family="sans-serif" font-size="11" lengthAdjust="spacing" textLength="219" x="55" y="87.312">requestUserConsentOrAuthentification</text><rect fill="#FAFAFA" height="20" style="stroke:#181818;stroke-width:0.5;" width="37" x="24" y="104.9063"/><text fill="#000000" font-family="sans-serif" font-size="11" lengthAdjust="spacing" textLength="29" x="28" y="119.1167">allow</text><polygon fill="#181818" points="274,132.7109,284,136.7109,274,140.7109,278,136.7109" style="stroke:#181818;stroke-width:1.0;"/><line style="stroke:#181818;stroke-width:1.0;stroke-dasharray:2.0,2.0;" x1="43" x2="280" y1="136.7109" y2="136.7109"/><polygon fill="#181818" points="478,159.5156,488,163.5156,478,167.5156,482,163.5156" style="stroke:#181818;stroke-width:1.0;"/><line style="stroke:#181818;stroke-width:1.0;" x1="286" x2="484" y1="163.5156" y2="163.5156"/><text fill="#000000" font-family="sans-serif" font-size="11" lengthAdjust="spacing" textLength="180" x="298" y="158.9214">GET_DATA(SAMServiceInfoTag)</text><polygon fill="#181818" points="297,186.3203,287,190.3203,297,194.3203,293,190.3203" style="stroke:#181818;stroke-width:1.0;"/><line style="stroke:#181818;stroke-width:1.0;stroke-dasharray:2.0,2.0;" x1="291" x2="489" y1="190.3203" y2="190.3203"/><text fill="#000000" font-family="sans-serif" font-size="11" lengthAdjust="spacing" textLength="178" x="299" y="185.7261">SAMServiceInfo(SAMSM_FQDN)</text><polygon fill="#181818" points="555.5,213.125,565.5,217.125,555.5,221.125,559.5,217.125" style="stroke:#181818;stroke-width:1.0;"/><line style="stroke:#181818;stroke-width:1.0;" x1="286" x2="561.5" y1="217.125" y2="217.125"/><text fill="#000000" font-family="sans-serif" font-size="11" lengthAdjust="spacing" textLength="199" x="327.25" y="212.5308">DELETE_SAM_SERVICES(aspSDAid)</text><polygon fill="#181818" points="297,239.9297,287,243.9297,297,247.9297,293,243.9297" style="stroke:#181818;stroke-width:1.0;"/><line style="stroke:#181818;stroke-width:1.0;stroke-dasharray:2.0,2.0;" x1="291" x2="566.5" y1="243.9297" y2="243.9297"/><text fill="#000000" font-family="sans-serif" font-size="11" lengthAdjust="spacing" textLength="103" x="375.25" y="239.3354">deleteStatusWord</text><polygon fill="#181818" points="674,266.7344,684,270.7344,674,274.7344,678,270.7344" style="stroke:#181818;stroke-width:1.0;"/><line style="stroke:#181818;stroke-width:1.0;stroke-dasharray:2.0,2.0;" x1="286" x2="680" y1="270.7344" y2="270.7344"/><text fill="#000000" font-family="sans-serif" font-size="11" lengthAdjust="spacing" textLength="235" x="368.5" y="266.1401">notification(sessionId, aspSDAid, DELETE)</text><polygon fill="#181818" points="793,293.5391,803,297.5391,793,301.5391,797,297.5391" style="stroke:#181818;stroke-width:1.0;"/><line style="stroke:#181818;stroke-width:1.0;stroke-dasharray:2.0,2.0;" x1="286" x2="799" y1="297.5391" y2="297.5391"/><text fill="#000000" font-family="sans-serif" font-size="11" lengthAdjust="spacing" textLength="322" x="384.5" y="292.9448">notification(SAMSM_FQDN, sessionId, aspSDAid, DELETE)</text><!--SRC=[VPBDReCm48JlVefLJY318LTKLR82gI8b_OEsH-J2XbXrR6gRfEtJrqu9K3Ng2UETsMztv1sl4RPAsLVrGSmRbotJR0y6tpkK5MxG6DOW5RoHKA6qg2-egDRgk5JIvlmBOJwVIAIoUBcoLr9LEwts25PtEAa8laN19HghcSNc4umIl2P0PfciuScWda5y3RCrfJD8e4Q15dEwoL4VU8M1P7kCc6dpbF8w9Cxeb2V7w4z0- -6DzRyB9OtRxKxJpkxSWMzvnInNacW_FwW3weav0IQ4EfwwNiNnf4864itl8KyzvoOhofGMD1WdNCcjAbWJaa4MEu-t9l1RTJ9jokL3UXi24FApimUuGWz8itLMPAMxAFFiyNcroF9WsDw5TbQEZ3unosndNfIkXuXyunGz75ZRYZu53t4v3Aa4nhqAzrtL4Pn1KJz6E6rr8c_-sCUT8lYlrJS0]--></g></svg>