<?xml version="1.0" encoding="us-ascii" standalone="no"?><svg xmlns="http://www.w3.org/2000/svg" xmlns:xlink="http://www.w3.org/1999/xlink" contentStyleType="text/css" height="321px" preserveAspectRatio="none" style="width:833px;height:321px;background:#FFFFFF;" version="1.1" viewBox="0 0 833 321" width="833px" zoomAndPan="magnify"><defs/><g><line style="stroke:#181818;stroke-width:0.5;" x1="43" x2="43" y1="36.2969" y2="314.5391"/><line style="stroke:#181818;stroke-width:0.5;" x1="273" x2="273" y1="36.2969" y2="314.5391"/><line style="stroke:#181818;stroke-width:0.5;" x1="477" x2="477" y1="36.2969" y2="314.5391"/><line style="stroke:#181818;stroke-width:0.5;" x1="554" x2="554" y1="36.2969" y2="314.5391"/><line style="stroke:#181818;stroke-width:0.5;" x1="673" x2="673" y1="36.2969" y2="314.5391"/><line style="stroke:#181818;stroke-width:0.5;" x1="792" x2="792" y1="36.2969" y2="314.5391"/><rect fill="#E3E3E3" height="30.2969" rx="2.5" ry="2.5" style="stroke:#181818;stroke-width:0.5;" width="76" x="5" y="5"/><text fill="#000000" font-family="sans-serif" font-size="14" lengthAdjust="spacing" textLength="62" x="12" y="24.9951">End User</text><rect fill="#E3E3E3" height="30.2969" rx="2.5" ry="2.5" style="stroke:#181818;stroke-width:0.5;" width="42" x="252" y="5"/><text fill="#000000" font-family="sans-serif" font-size="14" lengthAdjust="spacing" textLength="28" x="259" y="24.9951">LAA</text><rect fill="#E3E3E3" height="30.2969" rx="2.5" ry="2.5" style="stroke:#181818;stroke-width:0.5;" width="66" x="444" y="5"/><text fill="#000000" font-family="sans-serif" font-size="14" lengthAdjust="spacing" textLength="52" x="451" y="24.9951">ASP SD</text><rect fill="#E3E3E3" height="30.2969" rx="2.5" ry="2.5" style="stroke:#181818;stroke-width:0.5;" width="69" x="520" y="5"/><text fill="#000000" font-family="sans-serif" font-size="14" lengthAdjust="spacing" textLength="55" x="527" y="24.9951">SAM SD</text><rect fill="#E3E3E3" height="30.2969" rx="2.5" ry="2.5" style="stroke:#181818;stroke-width:0.5;" width="148" x="599" y="5"/><text fill="#000000" font-family="sans-serif" font-size="14" lengthAdjust="spacing" textLength="134" x="606" y="24.9951">Device application</text><rect fill="#E3E3E3" height="30.2969" rx="2.5" ry="2.5" style="stroke:#181818;stroke-width:0.5;" width="70" x="757" y="5"/><text fill="#000000" font-family="sans-serif" font-size="14" lengthAdjust="spacing" textLength="56" x="764" y="24.9951">SAM SM</text><polygon fill="#181818" points="261,61.1016,271,65.1016,261,69.1016,265,65.1016" style="stroke:#181818;stroke-width:1.0;"/><line style="stroke:#181818;stroke-width:1.0;" x1="43" x2="267" y1="65.1016" y2="65.1016"/><text fill="#000000" font-family="sans-serif" font-size="11" lengthAdjust="spacing" textLength="206" x="55" y="60.5073">deleteSAMService(name,aspSDAid)</text><rect fill="#FAFAFA" height="20" style="stroke:#181818;stroke-width:0.5;" width="284" x="16" y="78.1016"/><text fill="#000000" font-family="sans-serif" font-size="11" lengthAdjust="spacing" textLength="225" x="45.5" y="92.312">[0] End User interactions for user intent</text><line style="stroke:#181818;stroke-width:1.0;" x1="273" x2="315" y1="122.7109" y2="122.7109"/><line style="stroke:#181818;stroke-width:1.0;" x1="315" x2="315" y1="122.7109" y2="135.7109"/><line style="stroke:#181818;stroke-width:1.0;" x1="274" x2="315" y1="135.7109" y2="135.7109"/><polygon fill="#181818" points="284,131.7109,274,135.7109,284,139.7109,280,135.7109" style="stroke:#181818;stroke-width:1.0;"/><text fill="#000000" font-family="sans-serif" font-size="11" lengthAdjust="spacing" textLength="106" x="280" y="118.1167">generateSession()</text><polygon fill="#181818" points="465,158.5156,475,162.5156,465,166.5156,469,162.5156" style="stroke:#181818;stroke-width:1.0;"/><line style="stroke:#181818;stroke-width:1.0;" x1="273" x2="471" y1="162.5156" y2="162.5156"/><text fill="#000000" font-family="sans-serif" font-size="11" lengthAdjust="spacing" textLength="180" x="285" y="157.9214">GET_DATA(SAMServiceInfoTag)</text><polygon fill="#181818" points="284,185.3203,274,189.3203,284,193.3203,280,189.3203" style="stroke:#181818;stroke-width:1.0;"/><line style="stroke:#181818;stroke-width:1.0;stroke-dasharray:2.0,2.0;" x1="278" x2="476" y1="189.3203" y2="189.3203"/><text fill="#000000" font-family="sans-serif" font-size="11" lengthAdjust="spacing" textLength="178" x="286" y="184.7261">SAMServiceInfo(SAMSM_FQDN)</text><polygon fill="#181818" points="542.5,212.125,552.5,216.125,542.5,220.125,546.5,216.125" style="stroke:#181818;stroke-width:1.0;"/><line style="stroke:#181818;stroke-width:1.0;" x1="273" x2="548.5" y1="216.125" y2="216.125"/><text fill="#000000" font-family="sans-serif" font-size="11" lengthAdjust="spacing" textLength="199" x="314.25" y="211.5308">DELETE_SAM_SERVICES(aspSDAid)</text><polygon fill="#181818" points="284,238.9297,274,242.9297,284,246.9297,280,242.9297" style="stroke:#181818;stroke-width:1.0;"/><line style="stroke:#181818;stroke-width:1.0;stroke-dasharray:2.0,2.0;" x1="278" x2="553.5" y1="242.9297" y2="242.9297"/><text fill="#000000" font-family="sans-serif" font-size="11" lengthAdjust="spacing" textLength="103" x="362.25" y="238.3354">deleteStatusWord</text><polygon fill="#181818" points="661,265.7344,671,269.7344,661,273.7344,665,269.7344" style="stroke:#181818;stroke-width:1.0;"/><line style="stroke:#181818;stroke-width:1.0;stroke-dasharray:2.0,2.0;" x1="273" x2="667" y1="269.7344" y2="269.7344"/><text fill="#000000" font-family="sans-serif" font-size="11" lengthAdjust="spacing" textLength="235" x="355.5" y="265.1401">notification(sessionId, samServiceIdentifier, DELETE)</text><polygon fill="#181818" points="780,292.5391,790,296.5391,780,300.5391,784,296.5391" style="stroke:#181818;stroke-width:1.0;"/><line style="stroke:#181818;stroke-width:1.0;stroke-dasharray:2.0,2.0;" x1="273" x2="786" y1="296.5391" y2="296.5391"/><text fill="#000000" font-family="sans-serif" font-size="11" lengthAdjust="spacing" textLength="322" x="371.5" y="291.9448">notification(SAMSM_FQDN, sessionId, samServiceIdentifier, DELETE)</text><!--SRC=[VL1RJuCm57xlhpZX2HAMkDSzc3J2p99Xr4vzC8PKEB16QB4jy_BhRJSOCoxoqd3ETplVLfG8bLBsLNqIyoPanpLlmU1xZxB038tXDT96r18Ab1Rr6HJLMdqibRHCV2FCvoSGgIoUtxHAgcAhLOjWTOydcqPKs0Y9ncfkiVu2enfH4Y11AajuCAW3c5r2iAOqW0MKsA15HZE6UYSA32LlCUQcOmaLPKGSKViOe7Qe3wmO9Ya2_dk-U85n1CBVoGihb3Ik70tzE9MMe4FjzGXnKZw8VnPGeqIVbxdA736CZlk0ibjWYSzwdMxoX6veECLToKfjU1sH8snsrFoDsfEoV7cNt4G0X1mAy0PkCHWawJhTfBaRv2ozVrnTfImyLk4Q796Jnr2VvROtJqgNlgzzS2-Se3S7tdMDABWln9kuwqKr_8VcSE-gZ64qYeSOqQdKtZdxGvzkYk4_gHy0]--></g></svg>