<?xml version="1.0" encoding="us-ascii" standalone="no"?><svg xmlns="http://www.w3.org/2000/svg" xmlns:xlink="http://www.w3.org/1999/xlink" contentStyleType="text/css" height="362px" preserveAspectRatio="none" style="width:846px;height:362px;background:#FFFFFF;" version="1.1" viewBox="0 0 846 362" width="846px" zoomAndPan="magnify"><defs/><g><line style="stroke:#181818;stroke-width:0.5;" x1="43" x2="43" y1="36.2969" y2="355.3438"/><line style="stroke:#181818;stroke-width:0.5;" x1="286" x2="286" y1="36.2969" y2="355.3438"/><line style="stroke:#181818;stroke-width:0.5;" x1="490" x2="490" y1="36.2969" y2="355.3438"/><line style="stroke:#181818;stroke-width:0.5;" x1="567" x2="567" y1="36.2969" y2="355.3438"/><line style="stroke:#181818;stroke-width:0.5;" x1="686" x2="686" y1="36.2969" y2="355.3438"/><line style="stroke:#181818;stroke-width:0.5;" x1="805" x2="805" y1="36.2969" y2="355.3438"/><rect fill="#E3E3E3" height="30.2969" rx="2.5" ry="2.5" style="stroke:#181818;stroke-width:0.5;" width="76" x="5" y="5"/><text fill="#000000" font-family="sans-serif" font-size="14" lengthAdjust="spacing" textLength="62" x="12" y="24.9951">End User</text><rect fill="#E3E3E3" height="30.2969" rx="2.5" ry="2.5" style="stroke:#181818;stroke-width:0.5;" width="42" x="265" y="5"/><text fill="#000000" font-family="sans-serif" font-size="14" lengthAdjust="spacing" textLength="28" x="272" y="24.9951">LAA</text><rect fill="#E3E3E3" height="30.2969" rx="2.5" ry="2.5" style="stroke:#181818;stroke-width:0.5;" width="66" x="457" y="5"/><text fill="#000000" font-family="sans-serif" font-size="14" lengthAdjust="spacing" textLength="52" x="464" y="24.9951">ASP SD</text><rect fill="#E3E3E3" height="30.2969" rx="2.5" ry="2.5" style="stroke:#181818;stroke-width:0.5;" width="69" x="533" y="5"/><text fill="#000000" font-family="sans-serif" font-size="14" lengthAdjust="spacing" textLength="55" x="540" y="24.9951">SAM SD</text><rect fill="#E3E3E3" height="30.2969" rx="2.5" ry="2.5" style="stroke:#181818;stroke-width:0.5;" width="148" x="612" y="5"/><text fill="#000000" font-family="sans-serif" font-size="14" lengthAdjust="spacing" textLength="134" x="619" y="24.9951">Device application</text><rect fill="#E3E3E3" height="30.2969" rx="2.5" ry="2.5" style="stroke:#181818;stroke-width:0.5;" width="70" x="770" y="5"/><text fill="#000000" font-family="sans-serif" font-size="14" lengthAdjust="spacing" textLength="56" x="777" y="24.9951">SAM SM</text><polygon fill="#181818" points="274,61.1016,284,65.1016,274,69.1016,278,65.1016" style="stroke:#181818;stroke-width:1.0;"/><line style="stroke:#181818;stroke-width:1.0;" x1="43" x2="280" y1="65.1016" y2="65.1016"/><text fill="#000000" font-family="sans-serif" font-size="11" lengthAdjust="spacing" textLength="206" x="61.5" y="60.5073">deleteSAMService(name,aspSDAid)</text><polygon fill="#181818" points="54,87.9063,44,91.9063,54,95.9063,50,91.9063" style="stroke:#181818;stroke-width:1.0;"/><line style="stroke:#181818;stroke-width:1.0;" x1="48" x2="285" y1="91.9063" y2="91.9063"/><text fill="#000000" font-family="sans-serif" font-size="11" lengthAdjust="spacing" textLength="219" x="55" y="87.312">requestUserConsentOrAuthentification</text><rect fill="#FAFAFA" height="20" style="stroke:#181818;stroke-width:0.5;" width="37" x="24" y="104.9063"/><text fill="#000000" font-family="sans-serif" font-size="11" lengthAdjust="spacing" textLength="29" x="28" y="119.1167">allow</text><polygon fill="#181818" points="274,132.7109,284,136.7109,274,140.7109,278,136.7109" style="stroke:#181818;stroke-width:1.0;"/><line style="stroke:#181818;stroke-width:1.0;stroke-dasharray:2.0,2.0;" x1="43" x2="280" y1="136.7109" y2="136.7109"/><line style="stroke:#181818;stroke-width:1.0;" x1="286" x2="328" y1="163.5156" y2="163.5156"/><line style="stroke:#181818;stroke-width:1.0;" x1="328" x2="328" y1="163.5156" y2="176.5156"/><line style="stroke:#181818;stroke-width:1.0;" x1="287" x2="328" y1="176.5156" y2="176.5156"/><polygon fill="#181818" points="297,172.5156,287,176.5156,297,180.5156,293,176.5156" style="stroke:#181818;stroke-width:1.0;"/><text fill="#000000" font-family="sans-serif" font-size="11" lengthAdjust="spacing" textLength="106" x="293" y="158.9214">generateSession()</text><polygon fill="#181818" points="478,199.3203,488,203.3203,478,207.3203,482,203.3203" style="stroke:#181818;stroke-width:1.0;"/><line style="stroke:#181818;stroke-width:1.0;" x1="286" x2="484" y1="203.3203" y2="203.3203"/><text fill="#000000" font-family="sans-serif" font-size="11" lengthAdjust="spacing" textLength="180" x="298" y="198.7261">GET_DATA(SAMServiceInfoTag)</text><polygon fill="#181818" points="297,226.125,287,230.125,297,234.125,293,230.125" style="stroke:#181818;stroke-width:1.0;"/><line style="stroke:#181818;stroke-width:1.0;stroke-dasharray:2.0,2.0;" x1="291" x2="489" y1="230.125" y2="230.125"/><text fill="#000000" font-family="sans-serif" font-size="11" lengthAdjust="spacing" textLength="178" x="299" y="225.5308">SAMServiceInfo(SAMSM_FQDN)</text><polygon fill="#181818" points="555.5,252.9297,565.5,256.9297,555.5,260.9297,559.5,256.9297" style="stroke:#181818;stroke-width:1.0;"/><line style="stroke:#181818;stroke-width:1.0;" x1="286" x2="561.5" y1="256.9297" y2="256.9297"/><text fill="#000000" font-family="sans-serif" font-size="11" lengthAdjust="spacing" textLength="199" x="327.25" y="252.3354">DELETE_SAM_SERVICES(aspSDAid)</text><polygon fill="#181818" points="297,279.7344,287,283.7344,297,287.7344,293,283.7344" style="stroke:#181818;stroke-width:1.0;"/><line style="stroke:#181818;stroke-width:1.0;stroke-dasharray:2.0,2.0;" x1="291" x2="566.5" y1="283.7344" y2="283.7344"/><text fill="#000000" font-family="sans-serif" font-size="11" lengthAdjust="spacing" textLength="103" x="375.25" y="279.1401">deleteStatusWord</text><polygon fill="#181818" points="674,306.5391,684,310.5391,674,314.5391,678,310.5391" style="stroke:#181818;stroke-width:1.0;"/><line style="stroke:#181818;stroke-width:1.0;stroke-dasharray:2.0,2.0;" x1="286" x2="680" y1="310.5391" y2="310.5391"/><text fill="#000000" font-family="sans-serif" font-size="11" lengthAdjust="spacing" textLength="235" x="368.5" y="305.9448">notification(sessionId, aspSDAid, DELETE)</text><polygon fill="#181818" points="793,333.3438,803,337.3438,793,341.3438,797,337.3438" style="stroke:#181818;stroke-width:1.0;"/><line style="stroke:#181818;stroke-width:1.0;stroke-dasharray:2.0,2.0;" x1="286" x2="799" y1="337.3438" y2="337.3438"/><text fill="#000000" font-family="sans-serif" font-size="11" lengthAdjust="spacing" textLength="322" x="384.5" y="332.7495">notification(SAMSM_FQDN, sessionId, aspSDAid, DELETE)</text><!--SRC=[VL1RJuCm67tlh_Z24oJiOQ_4c3I3cIN3MwS-BXK-M2Eqi-qszTVR8WECYqzSpkqxPoTAX4ef-we-Y7aJSiyrRy7W-m5bWJaQmskaZQWb52WjwWiighKwBPMqJ7mXpESJYbGMBoEjaghOQTKYM7t02TA82XiXqLZDBTQVO5GZIW8ao6G9JmPr0BDh2DQK1f10YGrQP3Hdg8-Ym53o5cDkzYobeeo84pfcfnZr2MX_lB7-Sw6aSTtkD3tOdNiHbIYu5KeIxUy7TKGz4IV0cqQTEjUhsMo2a7EIVoHGeqHVWRaLdLiO3NX0sJsmrDznasssATtGS6omafNQy3eY0sqsUFvcTQ9yktn8RoC0GdusyG4Ew0FIR9rjigtxiMNPu_DgaR5mMCUDUcQE6VsYbjk3UL6w72RqnYdwSE3xVTElv4FSJiDgeVdfkofZE0V5_HdHrAfBpl_8nqun_6Vr3G00]--></g></svg>