<?xml version="1.0" encoding="us-ascii" standalone="no"?><svg xmlns="http://www.w3.org/2000/svg" xmlns:xlink="http://www.w3.org/1999/xlink" contentStyleType="text/css" height="556px" preserveAspectRatio="none" style="width:1085px;height:556px;background:#FFFFFF;" version="1.1" viewBox="0 0 1085 556" width="1085px" zoomAndPan="magnify"><defs/><g><line style="stroke:#181818;stroke-width:0.5;" x1="72" x2="72" y1="36.2969" y2="549.7813"/><line style="stroke:#181818;stroke-width:0.5;" x1="194" x2="194" y1="36.2969" y2="549.7813"/><line style="stroke:#181818;stroke-width:0.5;" x1="501" x2="501" y1="36.2969" y2="549.7813"/><line style="stroke:#181818;stroke-width:0.5;" x1="710.5" x2="710.5" y1="36.2969" y2="549.7813"/><line style="stroke:#181818;stroke-width:0.5;" x1="864" x2="864" y1="36.2969" y2="549.7813"/><rect fill="#E3E3E3" height="30.2969" rx="2.5" ry="2.5" style="stroke:#181818;stroke-width:0.5;" width="76" x="34" y="5"/><text fill="#000000" font-family="sans-serif" font-size="14" lengthAdjust="spacing" textLength="62" x="41" y="24.9951">End User</text><rect fill="#E3E3E3" height="30.2969" rx="2.5" ry="2.5" style="stroke:#181818;stroke-width:0.5;" width="148" x="120" y="5"/><text fill="#000000" font-family="sans-serif" font-size="14" lengthAdjust="spacing" textLength="134" x="127" y="24.9951">Device application</text><rect fill="#E3E3E3" height="30.2969" rx="2.5" ry="2.5" style="stroke:#181818;stroke-width:0.5;" width="42" x="480" y="5"/><text fill="#000000" font-family="sans-serif" font-size="14" lengthAdjust="spacing" textLength="28" x="487" y="24.9951">LAA</text><rect fill="#E3E3E3" height="30.2969" rx="2.5" ry="2.5" style="stroke:#181818;stroke-width:0.5;" width="69" x="676.5" y="5"/><text fill="#000000" font-family="sans-serif" font-size="14" lengthAdjust="spacing" textLength="55" x="683.5" y="24.9951">SAM SD</text><rect fill="#E3E3E3" height="30.2969" rx="2.5" ry="2.5" style="stroke:#181818;stroke-width:0.5;" width="70" x="829" y="5"/><text fill="#000000" font-family="sans-serif" font-size="14" lengthAdjust="spacing" textLength="56" x="836" y="24.9951">SAM SM</text><rect fill="#FAFAFA" height="33" style="stroke:#181818;stroke-width:0.5;" width="257" x="5" y="51.2969"/><text fill="#000000" font-family="sans-serif" font-size="11" lengthAdjust="spacing" textLength="249" x="9" y="65.5073">"End User installs a new Device Application</text><text fill="#000000" font-family="sans-serif" font-size="11" lengthAdjust="spacing" textLength="206" x="13" y="78.312">looking for a SAM script on SAM SM"</text><polygon fill="#181818" points="489,104.7109,499,108.7109,489,112.7109,493,108.7109" style="stroke:#181818;stroke-width:1.0;"/><line style="stroke:#181818;stroke-width:1.0;" x1="194" x2="495" y1="108.7109" y2="108.7109"/><text fill="#000000" font-family="sans-serif" font-size="11" lengthAdjust="spacing" textLength="283" x="206" y="104.1167">install(sessionId, samSMFQDN, localScriptUri=null)</text><polygon fill="#181818" points="699,131.5156,709,135.5156,699,139.5156,703,135.5156" style="stroke:#181818;stroke-width:1.0;"/><line style="stroke:#181818;stroke-width:1.0;" x1="501" x2="705" y1="135.5156" y2="135.5156"/><text fill="#000000" font-family="sans-serif" font-size="11" lengthAdjust="spacing" textLength="186" x="513" y="130.9214">GET_DATA(SAMEligibilityInfoTag)</text><polygon fill="#181818" points="512,158.3203,502,162.3203,512,166.3203,508,162.3203" style="stroke:#181818;stroke-width:1.0;"/><line style="stroke:#181818;stroke-width:1.0;stroke-dasharray:2.0,2.0;" x1="506" x2="710" y1="162.3203" y2="162.3203"/><text fill="#000000" font-family="sans-serif" font-size="11" lengthAdjust="spacing" textLength="96" x="558" y="157.7261">SAMEligibilityInfo</text><polygon fill="#181818" points="699,185.125,709,189.125,699,193.125,703,189.125" style="stroke:#181818;stroke-width:1.0;"/><line style="stroke:#181818;stroke-width:1.0;" x1="501" x2="705" y1="189.125" y2="189.125"/><text fill="#000000" font-family="sans-serif" font-size="11" lengthAdjust="spacing" textLength="114" x="549" y="184.5308">GET_DATA(CRDTag)</text><polygon fill="#181818" points="512,211.9297,502,215.9297,512,219.9297,508,215.9297" style="stroke:#181818;stroke-width:1.0;"/><line style="stroke:#181818;stroke-width:1.0;stroke-dasharray:2.0,2.0;" x1="506" x2="710" y1="215.9297" y2="215.9297"/><text fill="#000000" font-family="sans-serif" font-size="11" lengthAdjust="spacing" textLength="24" x="594" y="211.3354">CRD</text><polygon fill="#181818" points="699,238.7344,709,242.7344,699,246.7344,703,242.7344" style="stroke:#181818;stroke-width:1.0;"/><line style="stroke:#181818;stroke-width:1.0;" x1="501" x2="705" y1="242.7344" y2="242.7344"/><text fill="#000000" font-family="sans-serif" font-size="11" lengthAdjust="spacing" textLength="109" x="551.5" y="238.1401">GET_DATA(CCITag)</text><polygon fill="#181818" points="512,265.5391,502,269.5391,512,273.5391,508,269.5391" style="stroke:#181818;stroke-width:1.0;"/><line style="stroke:#181818;stroke-width:1.0;stroke-dasharray:2.0,2.0;" x1="506" x2="710" y1="269.5391" y2="269.5391"/><text fill="#000000" font-family="sans-serif" font-size="11" lengthAdjust="spacing" textLength="19" x="596.5" y="264.9448">CCI</text><polygon fill="#181818" points="699,292.3438,709,296.3438,699,300.3438,703,296.3438" style="stroke:#181818;stroke-width:1.0;"/><line style="stroke:#181818;stroke-width:1.0;" x1="501" x2="705" y1="296.3438" y2="296.3438"/><text fill="#000000" font-family="sans-serif" font-size="11" lengthAdjust="spacing" textLength="146" x="533" y="291.7495">GET_DATA(SAMCertifTag)</text><polygon fill="#181818" points="512,319.1484,502,323.1484,512,327.1484,508,323.1484" style="stroke:#181818;stroke-width:1.0;"/><line style="stroke:#181818;stroke-width:1.0;stroke-dasharray:2.0,2.0;" x1="506" x2="710" y1="323.1484" y2="323.1484"/><text fill="#000000" font-family="sans-serif" font-size="11" lengthAdjust="spacing" textLength="62" x="575" y="318.5542">SAMCertifs</text><polygon fill="#181818" points="852,345.9531,862,349.9531,852,353.9531,856,349.9531" style="stroke:#181818;stroke-width:1.0;"/><line style="stroke:#181818;stroke-width:1.0;" x1="501" x2="858" y1="349.9531" y2="349.9531"/><text fill="#000000" font-family="sans-serif" font-size="11" lengthAdjust="spacing" textLength="339" x="513" y="345.3589">initiateInstallation(sessionId, SAMEligibilityInfos, DeviceInfo)</text><line style="stroke:#181818;stroke-width:1.0;" x1="864" x2="906" y1="376.7578" y2="376.7578"/><line style="stroke:#181818;stroke-width:1.0;" x1="906" x2="906" y1="376.7578" y2="389.7578"/><line style="stroke:#181818;stroke-width:1.0;" x1="865" x2="906" y1="389.7578" y2="389.7578"/><polygon fill="#181818" points="875,385.7578,865,389.7578,875,393.7578,871,389.7578" style="stroke:#181818;stroke-width:1.0;"/><text fill="#000000" font-family="sans-serif" font-size="11" lengthAdjust="spacing" textLength="207" x="871" y="372.1636">retrieveOrGenerateScript(sessionId)</text><polygon fill="#181818" points="512,412.5625,502,416.5625,512,420.5625,508,416.5625" style="stroke:#181818;stroke-width:1.0;"/><line style="stroke:#181818;stroke-width:1.0;stroke-dasharray:2.0,2.0;" x1="506" x2="863" y1="416.5625" y2="416.5625"/><text fill="#000000" font-family="sans-serif" font-size="11" lengthAdjust="spacing" textLength="203" x="581" y="411.9683">samEligibilityResponse(gpseramUri)</text><rect fill="#FAFAFA" height="20" style="stroke:#181818;stroke-width:0.5;" width="483" x="45" y="429.5625"/><text fill="#000000" font-family="sans-serif" font-size="11" lengthAdjust="spacing" textLength="225" x="174" y="443.7729">[0] End User interactions for user intent</text><rect fill="#FAFAFA" height="20" style="stroke:#181818;stroke-width:0.5;" width="414" x="475" y="460.3672"/><text fill="#000000" font-family="sans-serif" font-size="11" lengthAdjust="spacing" textLength="340" x="512" y="474.5776">[1a] Process executeGPSERAMScript(sessionId, gpseramUri)</text><polygon fill="#181818" points="205,500.9766,195,504.9766,205,508.9766,201,504.9766" style="stroke:#181818;stroke-width:1.0;"/><line style="stroke:#181818;stroke-width:1.0;stroke-dasharray:2.0,2.0;" x1="199" x2="500" y1="504.9766" y2="504.9766"/><text fill="#000000" font-family="sans-serif" font-size="11" lengthAdjust="spacing" textLength="238" x="228.5" y="500.3823">notification(sessionId, aspSDAid, INSTALL)</text><polygon fill="#181818" points="852,527.7813,862,531.7813,852,535.7813,856,531.7813" style="stroke:#181818;stroke-width:1.0;"/><line style="stroke:#181818;stroke-width:1.0;stroke-dasharray:2.0,2.0;" x1="501" x2="858" y1="531.7813" y2="531.7813"/><text fill="#000000" font-family="sans-serif" font-size="11" lengthAdjust="spacing" textLength="238" x="563.5" y="527.187">notification(sessionId, aspSDAid, INSTALL)</text><!--SRC=[ZLDDRzim3BthLn0-nO0BBDS26o34QM0WxheuFGt5e3gqIqoMF4bEs_twoNO-jDRDvfCbyZsIZqzFj4Eej7QF-eNPdwHQOKG35dzrg4hCqLfH8vTKAoXHEJGJMTmO_NoZbIleDy9y7gGexN0wqcYbooUZ6mHdEWmYaYgKfD0w8npMhs2rf1q3Pdesq7iq42tL3kujcYY1ACKzbGYYRIMLmf5M4OF-EsK1AUk4b1O4A7o60uAV4IC0fDQ-ZzfBOdngmNEmfQ7MWLR3gSWZXfvqQ8MngT9mzGNMdCFriUZCUXLz9DibO4LJv3VVqjl4bog5B0RsUqEVLITbp7gWnqT3hJJo9AlbzaVAjtpchvP-3_H8ajnhfYgz5NNCJgbNfxhlCm4kCIyswKTKFdGHkSW-H2woVqopGEEekZ34c61Pv6-YCr4U3TgI8s-FRDHua3uK-hq6DZcilJ_4m4vaVnCRT8PmZr_D2XNs3XntT2QF0-YfNR_OeDu6RQkLnLdTUlU9nYyuVcFWVgOayF5emE-V7Y0mhNzlekn7iuCZk-EjSe4B9tcFPXrPv-81xemk_GY0BrXs3bTtnNB3yxV39H2s71OPbjbhDUNvw_wbKtKuXtJ2jaNAoVzbjyMMhzTno7NM_V_nVm00]--></g></svg>