<?xml version="1.0" encoding="us-ascii" standalone="no"?><svg xmlns="http://www.w3.org/2000/svg" xmlns:xlink="http://www.w3.org/1999/xlink" contentStyleType="text/css" height="373px" preserveAspectRatio="none" style="width:1177px;height:373px;background:#FFFFFF;" version="1.1" viewBox="0 0 1177 373" width="1177px" zoomAndPan="magnify"><defs/><g><line style="stroke:#181818;stroke-width:0.5;" x1="72" x2="72" y1="36.2969" y2="366.1484"/><line style="stroke:#181818;stroke-width:0.5;" x1="194" x2="194" y1="36.2969" y2="366.1484"/><line style="stroke:#181818;stroke-width:0.5;" x1="501" x2="501" y1="36.2969" y2="366.1484"/><line style="stroke:#181818;stroke-width:0.5;" x1="566" x2="566" y1="36.2969" y2="366.1484"/><line style="stroke:#181818;stroke-width:0.5;" x1="956" x2="956" y1="36.2969" y2="366.1484"/><rect fill="#E3E3E3" height="30.2969" rx="2.5" ry="2.5" style="stroke:#181818;stroke-width:0.5;" width="76" x="34" y="5"/><text fill="#000000" font-family="sans-serif" font-size="14" lengthAdjust="spacing" textLength="62" x="41" y="24.9951">End User</text><rect fill="#E3E3E3" height="30.2969" rx="2.5" ry="2.5" style="stroke:#181818;stroke-width:0.5;" width="148" x="120" y="5"/><text fill="#000000" font-family="sans-serif" font-size="14" lengthAdjust="spacing" textLength="134" x="127" y="24.9951">Device application</text><rect fill="#E3E3E3" height="30.2969" rx="2.5" ry="2.5" style="stroke:#181818;stroke-width:0.5;" width="42" x="480" y="5"/><text fill="#000000" font-family="sans-serif" font-size="14" lengthAdjust="spacing" textLength="28" x="487" y="24.9951">LAA</text><rect fill="#E3E3E3" height="30.2969" rx="2.5" ry="2.5" style="stroke:#181818;stroke-width:0.5;" width="69" x="532" y="5"/><text fill="#000000" font-family="sans-serif" font-size="14" lengthAdjust="spacing" textLength="55" x="539" y="24.9951">SAM SD</text><rect fill="#E3E3E3" height="30.2969" rx="2.5" ry="2.5" style="stroke:#181818;stroke-width:0.5;" width="70" x="921" y="5"/><text fill="#000000" font-family="sans-serif" font-size="14" lengthAdjust="spacing" textLength="56" x="928" y="24.9951">SAM SM</text><rect fill="#FAFAFA" height="33" style="stroke:#181818;stroke-width:0.5;" width="257" x="5" y="51.2969"/><text fill="#000000" font-family="sans-serif" font-size="11" lengthAdjust="spacing" textLength="249" x="9" y="65.5073">"End User installs a new Device Application</text><text fill="#000000" font-family="sans-serif" font-size="11" lengthAdjust="spacing" textLength="206" x="13" y="78.312">looking for a SAM script on SAM SM"</text><polygon fill="#181818" points="489,104.7109,499,108.7109,489,112.7109,493,108.7109" style="stroke:#181818;stroke-width:1.0;"/><line style="stroke:#181818;stroke-width:1.0;" x1="194" x2="495" y1="108.7109" y2="108.7109"/><text fill="#000000" font-family="sans-serif" font-size="11" lengthAdjust="spacing" textLength="283" x="206" y="104.1167">install(sessionId, samSMFQDN, localScriptUri=null)</text><rect fill="#FAFAFA" height="20" style="stroke:#181818;stroke-width:0.5;" width="195" x="436" y="121.7109"/><text fill="#000000" font-family="sans-serif" font-size="11" lengthAdjust="spacing" textLength="187" x="440" y="135.9214">[0] Process getSAMEligibilityInfos</text><polygon fill="#181818" points="944,162.3203,954,166.3203,944,170.3203,948,166.3203" style="stroke:#181818;stroke-width:1.0;"/><line style="stroke:#181818;stroke-width:1.0;" x1="501" x2="950" y1="166.3203" y2="166.3203"/><text fill="#000000" font-family="sans-serif" font-size="11" lengthAdjust="spacing" textLength="431" x="513" y="161.7261">initiateInstallation(sessionId, supportedKlccs, SAMEligibilityInfos, DeviceInfo)</text><line style="stroke:#181818;stroke-width:1.0;" x1="956" x2="998" y1="193.125" y2="193.125"/><line style="stroke:#181818;stroke-width:1.0;" x1="998" x2="998" y1="193.125" y2="206.125"/><line style="stroke:#181818;stroke-width:1.0;" x1="957" x2="998" y1="206.125" y2="206.125"/><polygon fill="#181818" points="967,202.125,957,206.125,967,210.125,963,206.125" style="stroke:#181818;stroke-width:1.0;"/><text fill="#000000" font-family="sans-serif" font-size="11" lengthAdjust="spacing" textLength="207" x="963" y="188.5308">retrieveOrGenerateScript(sessionId)</text><polygon fill="#181818" points="512,228.9297,502,232.9297,512,236.9297,508,232.9297" style="stroke:#181818;stroke-width:1.0;"/><line style="stroke:#181818;stroke-width:1.0;stroke-dasharray:2.0,2.0;" x1="506" x2="955" y1="232.9297" y2="232.9297"/><text fill="#000000" font-family="sans-serif" font-size="11" lengthAdjust="spacing" textLength="203" x="627" y="228.3354">samEligibilityResponse(gpseramUri)</text><rect fill="#FAFAFA" height="20" style="stroke:#181818;stroke-width:0.5;" width="483" x="45" y="245.9297"/><text fill="#000000" font-family="sans-serif" font-size="11" lengthAdjust="spacing" textLength="225" x="174" y="260.1401">[1] End User interactions for user intent</text><rect fill="#FAFAFA" height="20" style="stroke:#181818;stroke-width:0.5;" width="506" x="475" y="276.7344"/><text fill="#000000" font-family="sans-serif" font-size="11" lengthAdjust="spacing" textLength="340" x="558" y="290.9448">[2a] Process executeGPSERAMScript(sessionId, gpseramUri)</text><polygon fill="#181818" points="205,317.3438,195,321.3438,205,325.3438,201,321.3438" style="stroke:#181818;stroke-width:1.0;"/><line style="stroke:#181818;stroke-width:1.0;stroke-dasharray:2.0,2.0;" x1="199" x2="500" y1="321.3438" y2="321.3438"/><text fill="#000000" font-family="sans-serif" font-size="11" lengthAdjust="spacing" textLength="238" x="228.5" y="316.7495">notification(sessionId, aspSDAid, INSTALL)</text><polygon fill="#181818" points="944,344.1484,954,348.1484,944,352.1484,948,348.1484" style="stroke:#181818;stroke-width:1.0;"/><line style="stroke:#181818;stroke-width:1.0;stroke-dasharray:2.0,2.0;" x1="501" x2="950" y1="348.1484" y2="348.1484"/><text fill="#000000" font-family="sans-serif" font-size="11" lengthAdjust="spacing" textLength="238" x="609.5" y="343.5542">notification(sessionId, aspSDAid, INSTALL)</text><!--SRC=[ZLDBRzim3BxxLn0-DO07B3qMQ041IOjWSTVMwsdeGPKPbwWiUfASFdxz9CT9bC83vfDbaj-ByWlL21jc_yplcNibqqahMt3ufqUZi4JdP8D2KsD0eV5e9xg4jVnspSPNz8amdoSjXZrELresh5uijmZUzfXKD6rGaq7dhVJOV81ZJNK6cOrem5kqa2zD3OyERLv0li0jAGJPTPgKzCGcpo0-XouWuxpKse44WsymJeZZn6u0D7FGqOH8R6YjH0bEMUeyi1bELPbd6407ALasHGtVhc0j15piISzSI35KLdK1JhPLUNs_k2q2bPAw6j0VBLsQNkjPTk8ne4Hx0-zYjFJx-nFSMLO14XhqeROCow5dqkG_LcR3xaHVX8Y2yb7ye8eyXM1NEtM3w1E9VTUnzLZ_q4gv0YOeYZ70U9Xb1-nJ7elU4cxnfxr1Wt6LExD7hdJq45f8AA5xGDUnSNZMT66DiWr9pRxSX36bmuKOSve_GRBzS76bYaxTiDf-_zNu92xuP_hb7lLS7kF7TrIznvkxQlaWog_c2aWbfoJHP_GxUNakuYz3c_6SmadNLGj1uMrrM_qIw_KinJhc_l_pVm40]--></g></svg>