<?xml version="1.0" encoding="us-ascii" standalone="no"?><svg xmlns="http://www.w3.org/2000/svg" xmlns:xlink="http://www.w3.org/1999/xlink" contentStyleType="text/css" height="539px" preserveAspectRatio="none" style="width:1094px;height:539px;background:#FFFFFF;" version="1.1" viewBox="0 0 1094 539" width="1094px" zoomAndPan="magnify"><defs/><g><line style="stroke:#181818;stroke-width:0.5;" x1="43" x2="43" y1="36.2969" y2="532.9766"/><line style="stroke:#181818;stroke-width:0.5;" x1="203" x2="203" y1="36.2969" y2="532.9766"/><line style="stroke:#181818;stroke-width:0.5;" x1="510" x2="510" y1="36.2969" y2="532.9766"/><line style="stroke:#181818;stroke-width:0.5;" x1="719.5" x2="719.5" y1="36.2969" y2="532.9766"/><line style="stroke:#181818;stroke-width:0.5;" x1="873" x2="873" y1="36.2969" y2="532.9766"/><rect fill="#E3E3E3" height="30.2969" rx="2.5" ry="2.5" style="stroke:#181818;stroke-width:0.5;" width="76" x="5" y="5"/><text fill="#000000" font-family="sans-serif" font-size="14" lengthAdjust="spacing" textLength="62" x="12" y="24.9951">End User</text><rect fill="#E3E3E3" height="30.2969" rx="2.5" ry="2.5" style="stroke:#181818;stroke-width:0.5;" width="148" x="129" y="5"/><text fill="#000000" font-family="sans-serif" font-size="14" lengthAdjust="spacing" textLength="134" x="136" y="24.9951">Device application</text><rect fill="#E3E3E3" height="30.2969" rx="2.5" ry="2.5" style="stroke:#181818;stroke-width:0.5;" width="42" x="489" y="5"/><text fill="#000000" font-family="sans-serif" font-size="14" lengthAdjust="spacing" textLength="28" x="496" y="24.9951">LAA</text><rect fill="#E3E3E3" height="30.2969" rx="2.5" ry="2.5" style="stroke:#181818;stroke-width:0.5;" width="69" x="685.5" y="5"/><text fill="#000000" font-family="sans-serif" font-size="14" lengthAdjust="spacing" textLength="55" x="692.5" y="24.9951">SAM SD</text><rect fill="#E3E3E3" height="30.2969" rx="2.5" ry="2.5" style="stroke:#181818;stroke-width:0.5;" width="70" x="838" y="5"/><text fill="#000000" font-family="sans-serif" font-size="14" lengthAdjust="spacing" textLength="56" x="845" y="24.9951">SAM SM</text><polygon fill="#181818" points="191,61.1016,201,65.1016,191,69.1016,195,65.1016" style="stroke:#181818;stroke-width:1.0;"/><line style="stroke:#181818;stroke-width:1.0;" x1="43" x2="197" y1="65.1016" y2="65.1016"/><text fill="#000000" font-family="sans-serif" font-size="11" lengthAdjust="spacing" textLength="136" x="55" y="60.5073">installDeviceApplication</text><polygon fill="#181818" points="498,87.9063,508,91.9063,498,95.9063,502,91.9063" style="stroke:#181818;stroke-width:1.0;"/><line style="stroke:#181818;stroke-width:1.0;" x1="203" x2="504" y1="91.9063" y2="91.9063"/><text fill="#000000" font-family="sans-serif" font-size="11" lengthAdjust="spacing" textLength="283" x="215" y="87.312">install(sessionId, samSMFQDN, localScriptUri=null)</text><polygon fill="#181818" points="708,114.7109,718,118.7109,708,122.7109,712,118.7109" style="stroke:#181818;stroke-width:1.0;"/><line style="stroke:#181818;stroke-width:1.0;" x1="510" x2="714" y1="118.7109" y2="118.7109"/><text fill="#000000" font-family="sans-serif" font-size="11" lengthAdjust="spacing" textLength="186" x="522" y="114.1167">GET_DATA(SAMEligibilityInfoTag)</text><polygon fill="#181818" points="521,141.5156,511,145.5156,521,149.5156,517,145.5156" style="stroke:#181818;stroke-width:1.0;"/><line style="stroke:#181818;stroke-width:1.0;stroke-dasharray:2.0,2.0;" x1="515" x2="719" y1="145.5156" y2="145.5156"/><text fill="#000000" font-family="sans-serif" font-size="11" lengthAdjust="spacing" textLength="96" x="567" y="140.9214">SAMEligibilityInfo</text><polygon fill="#181818" points="708,168.3203,718,172.3203,708,176.3203,712,172.3203" style="stroke:#181818;stroke-width:1.0;"/><line style="stroke:#181818;stroke-width:1.0;" x1="510" x2="714" y1="172.3203" y2="172.3203"/><text fill="#000000" font-family="sans-serif" font-size="11" lengthAdjust="spacing" textLength="114" x="558" y="167.7261">GET_DATA(CRDTag)</text><polygon fill="#181818" points="521,195.125,511,199.125,521,203.125,517,199.125" style="stroke:#181818;stroke-width:1.0;"/><line style="stroke:#181818;stroke-width:1.0;stroke-dasharray:2.0,2.0;" x1="515" x2="719" y1="199.125" y2="199.125"/><text fill="#000000" font-family="sans-serif" font-size="11" lengthAdjust="spacing" textLength="24" x="603" y="194.5308">CRD</text><polygon fill="#181818" points="708,221.9297,718,225.9297,708,229.9297,712,225.9297" style="stroke:#181818;stroke-width:1.0;"/><line style="stroke:#181818;stroke-width:1.0;" x1="510" x2="714" y1="225.9297" y2="225.9297"/><text fill="#000000" font-family="sans-serif" font-size="11" lengthAdjust="spacing" textLength="109" x="560.5" y="221.3354">GET_DATA(CCITag)</text><polygon fill="#181818" points="521,248.7344,511,252.7344,521,256.7344,517,252.7344" style="stroke:#181818;stroke-width:1.0;"/><line style="stroke:#181818;stroke-width:1.0;stroke-dasharray:2.0,2.0;" x1="515" x2="719" y1="252.7344" y2="252.7344"/><text fill="#000000" font-family="sans-serif" font-size="11" lengthAdjust="spacing" textLength="19" x="605.5" y="248.1401">CCI</text><polygon fill="#181818" points="708,275.5391,718,279.5391,708,283.5391,712,279.5391" style="stroke:#181818;stroke-width:1.0;"/><line style="stroke:#181818;stroke-width:1.0;" x1="510" x2="714" y1="279.5391" y2="279.5391"/><text fill="#000000" font-family="sans-serif" font-size="11" lengthAdjust="spacing" textLength="146" x="542" y="274.9448">GET_DATA(SAMCertifTag)</text><polygon fill="#181818" points="521,302.3438,511,306.3438,521,310.3438,517,306.3438" style="stroke:#181818;stroke-width:1.0;"/><line style="stroke:#181818;stroke-width:1.0;stroke-dasharray:2.0,2.0;" x1="515" x2="719" y1="306.3438" y2="306.3438"/><text fill="#000000" font-family="sans-serif" font-size="11" lengthAdjust="spacing" textLength="62" x="584" y="301.7495">SAMCertifs</text><polygon fill="#181818" points="861,329.1484,871,333.1484,861,337.1484,865,333.1484" style="stroke:#181818;stroke-width:1.0;"/><line style="stroke:#181818;stroke-width:1.0;" x1="510" x2="867" y1="333.1484" y2="333.1484"/><text fill="#000000" font-family="sans-serif" font-size="11" lengthAdjust="spacing" textLength="339" x="522" y="328.5542">initiateInstallation(sessionId, SAMEligibilityInfos, DeviceInfo)</text><line style="stroke:#181818;stroke-width:1.0;" x1="873" x2="915" y1="359.9531" y2="359.9531"/><line style="stroke:#181818;stroke-width:1.0;" x1="915" x2="915" y1="359.9531" y2="372.9531"/><line style="stroke:#181818;stroke-width:1.0;" x1="874" x2="915" y1="372.9531" y2="372.9531"/><polygon fill="#181818" points="884,368.9531,874,372.9531,884,376.9531,880,372.9531" style="stroke:#181818;stroke-width:1.0;"/><text fill="#000000" font-family="sans-serif" font-size="11" lengthAdjust="spacing" textLength="207" x="880" y="355.3589">retrieveOrGenerateScript(sessionId)</text><polygon fill="#181818" points="521,395.7578,511,399.7578,521,403.7578,517,399.7578" style="stroke:#181818;stroke-width:1.0;"/><line style="stroke:#181818;stroke-width:1.0;stroke-dasharray:2.0,2.0;" x1="515" x2="872" y1="399.7578" y2="399.7578"/><text fill="#000000" font-family="sans-serif" font-size="11" lengthAdjust="spacing" textLength="203" x="590" y="395.1636">samEligibilityResponse(gpseramUri)</text><rect fill="#FAFAFA" height="20" style="stroke:#181818;stroke-width:0.5;" width="521" x="16" y="412.7578"/><text fill="#000000" font-family="sans-serif" font-size="11" lengthAdjust="spacing" textLength="225" x="164" y="426.9683">[0] End User interactions for user intent</text><rect fill="#FAFAFA" height="20" style="stroke:#181818;stroke-width:0.5;" width="414" x="484" y="443.5625"/><text fill="#000000" font-family="sans-serif" font-size="11" lengthAdjust="spacing" textLength="333" x="524.5" y="457.7729">[1a] Process executeGPSERAMScript(sessionId, gpseramUri)</text><polygon fill="#181818" points="214,484.1719,204,488.1719,214,492.1719,210,488.1719" style="stroke:#181818;stroke-width:1.0;"/><line style="stroke:#181818;stroke-width:1.0;stroke-dasharray:2.0,2.0;" x1="208" x2="509" y1="488.1719" y2="488.1719"/><text fill="#000000" font-family="sans-serif" font-size="11" lengthAdjust="spacing" textLength="238" x="237.5" y="483.5776">notification(sessionId, aspSDAid, INSTALL)</text><polygon fill="#181818" points="861,510.9766,871,514.9766,861,518.9766,865,514.9766" style="stroke:#181818;stroke-width:1.0;"/><line style="stroke:#181818;stroke-width:1.0;stroke-dasharray:2.0,2.0;" x1="510" x2="867" y1="514.9766" y2="514.9766"/><text fill="#000000" font-family="sans-serif" font-size="11" lengthAdjust="spacing" textLength="238" x="572.5" y="510.3823">notification(sessionId, aspSDAid, INSTALL)</text><!--SRC=[ZLDDRzim3BthLn0-nO0BDDS17I34QM0WxheuFGr5eIgqIqoMN4dEsltwoN4QkssIpYUBV7pauySJRH1AO_oZUM7kD-b6M563m-SMjSGSdHCLSaML1edQeps2ujQQFzT6-uB-8aod8uWs7ezxQgEDVBAcHl2snP57KOcAD3flXSVg5PnHj670ehdUm9r36y75TuXIt99444sZI0fFHaVm3KWxBvJgdNpmiQFumBFaV0YRkA0uUB9D0axKHNxzCxr9G1afL24jDVxEqfLkbOfP5zZLKV0SYhJBlPYl7rA-vfDWceUUqICfyg-PBirQL34xG2yEUJyZ0SunprRfAQhWEXivoqv6ph8lrCpGUYhFYEW1ZaN14Wr4UJyIyXH6cVKzthL-tEZFFN09zDFg7Z6m0zbxOelU4cxnXrsWncvR-XaDvF4ez51k6EmetmfTOxJ3ITM4rH9r670SbirsgmjcYnPscX8Orez1z_swl8StKz0ORaF8JfeB1sMXVRDgpp2WTdp7UVSLxbcdzt1hZGmA05zGjXuNjyLynVEFsX8OLppEiPlbwHC9A2htxp6TS4sHSWf_sKsnvijbFEOQslx_yVy0]--></g></svg>