<?xml version="1.0" encoding="us-ascii" standalone="no"?><svg xmlns="http://www.w3.org/2000/svg" xmlns:xlink="http://www.w3.org/1999/xlink" contentStyleType="text/css" height="503px" preserveAspectRatio="none" style="width:946px;height:503px;background:#FFFFFF;" version="1.1" viewBox="0 0 946 503" width="946px" zoomAndPan="magnify"><defs/><g><line style="stroke:#181818;stroke-width:0.5;" x1="72" x2="72" y1="36.2969" y2="496.1719"/><line style="stroke:#181818;stroke-width:0.5;" x1="195" x2="195" y1="36.2969" y2="496.1719"/><line style="stroke:#181818;stroke-width:0.5;" x1="473" x2="473" y1="36.2969" y2="496.1719"/><line style="stroke:#181818;stroke-width:0.5;" x1="825.5" x2="825.5" y1="36.2969" y2="496.1719"/><line style="stroke:#181818;stroke-width:0.5;" x1="905.5" x2="905.5" y1="36.2969" y2="496.1719"/><rect fill="#E3E3E3" height="30.2969" rx="2.5" ry="2.5" style="stroke:#181818;stroke-width:0.5;" width="76" x="34" y="5"/><text fill="#000000" font-family="sans-serif" font-size="14" lengthAdjust="spacing" textLength="62" x="41" y="24.9951">End User</text><rect fill="#E3E3E3" height="30.2969" rx="2.5" ry="2.5" style="stroke:#181818;stroke-width:0.5;" width="150" x="120" y="5"/><text fill="#000000" font-family="sans-serif" font-size="14" lengthAdjust="spacing" textLength="136" x="127" y="24.9951">Device Application</text><rect fill="#E3E3E3" height="30.2969" rx="2.5" ry="2.5" style="stroke:#181818;stroke-width:0.5;" width="42" x="452" y="5"/><text fill="#000000" font-family="sans-serif" font-size="14" lengthAdjust="spacing" textLength="28" x="459" y="24.9951">LAA</text><rect fill="#E3E3E3" height="30.2969" rx="2.5" ry="2.5" style="stroke:#181818;stroke-width:0.5;" width="69" x="791.5" y="5"/><text fill="#000000" font-family="sans-serif" font-size="14" lengthAdjust="spacing" textLength="55" x="798.5" y="24.9951">SAM SD</text><rect fill="#E3E3E3" height="30.2969" rx="2.5" ry="2.5" style="stroke:#181818;stroke-width:0.5;" width="70" x="870.5" y="5"/><text fill="#000000" font-family="sans-serif" font-size="14" lengthAdjust="spacing" textLength="56" x="877.5" y="24.9951">SAM SM</text><rect fill="#FAFAFA" height="33" style="stroke:#181818;stroke-width:0.5;" width="257" x="5" y="51.2969"/><text fill="#000000" font-family="sans-serif" font-size="11" lengthAdjust="spacing" textLength="249" x="9" y="65.5073">"End User installs a new Device Application</text><text fill="#000000" font-family="sans-serif" font-size="11" lengthAdjust="spacing" textLength="137" x="13" y="78.312">containing a SAM script"</text><polygon fill="#181818" points="461,104.7109,471,108.7109,461,112.7109,465,108.7109" style="stroke:#181818;stroke-width:1.0;"/><line style="stroke:#181818;stroke-width:1.0;" x1="195" x2="467" y1="108.7109" y2="108.7109"/><text fill="#000000" font-family="sans-serif" font-size="11" lengthAdjust="spacing" textLength="254" x="207" y="104.1167">install(sessionId, samSMFQDN, localScriptUri)</text><polygon fill="#181818" points="814,131.5156,824,135.5156,814,139.5156,818,135.5156" style="stroke:#181818;stroke-width:1.0;"/><line style="stroke:#181818;stroke-width:1.0;" x1="473" x2="820" y1="135.5156" y2="135.5156"/><text fill="#000000" font-family="sans-serif" font-size="11" lengthAdjust="spacing" textLength="186" x="556.5" y="130.9214">GET_DATA(SAMEligibilityInfoTag)</text><polygon fill="#181818" points="484,158.3203,474,162.3203,484,166.3203,480,162.3203" style="stroke:#181818;stroke-width:1.0;"/><line style="stroke:#181818;stroke-width:1.0;stroke-dasharray:2.0,2.0;" x1="478" x2="825" y1="162.3203" y2="162.3203"/><text fill="#000000" font-family="sans-serif" font-size="11" lengthAdjust="spacing" textLength="96" x="601.5" y="157.7261">SAMEligibilityInfo</text><polygon fill="#181818" points="814,185.125,824,189.125,814,193.125,818,189.125" style="stroke:#181818;stroke-width:1.0;"/><line style="stroke:#181818;stroke-width:1.0;" x1="473" x2="820" y1="189.125" y2="189.125"/><text fill="#000000" font-family="sans-serif" font-size="11" lengthAdjust="spacing" textLength="114" x="592.5" y="184.5308">GET_DATA(CRDTag)</text><polygon fill="#181818" points="484,211.9297,474,215.9297,484,219.9297,480,215.9297" style="stroke:#181818;stroke-width:1.0;"/><line style="stroke:#181818;stroke-width:1.0;stroke-dasharray:2.0,2.0;" x1="478" x2="825" y1="215.9297" y2="215.9297"/><text fill="#000000" font-family="sans-serif" font-size="11" lengthAdjust="spacing" textLength="24" x="637.5" y="211.3354">CRD</text><polygon fill="#181818" points="814,238.7344,824,242.7344,814,246.7344,818,242.7344" style="stroke:#181818;stroke-width:1.0;"/><line style="stroke:#181818;stroke-width:1.0;" x1="473" x2="820" y1="242.7344" y2="242.7344"/><text fill="#000000" font-family="sans-serif" font-size="11" lengthAdjust="spacing" textLength="109" x="595" y="238.1401">GET_DATA(CCITag)</text><polygon fill="#181818" points="484,265.5391,474,269.5391,484,273.5391,480,269.5391" style="stroke:#181818;stroke-width:1.0;"/><line style="stroke:#181818;stroke-width:1.0;stroke-dasharray:2.0,2.0;" x1="478" x2="825" y1="269.5391" y2="269.5391"/><text fill="#000000" font-family="sans-serif" font-size="11" lengthAdjust="spacing" textLength="19" x="640" y="264.9448">CCI</text><polygon fill="#181818" points="814,292.3438,824,296.3438,814,300.3438,818,296.3438" style="stroke:#181818;stroke-width:1.0;"/><line style="stroke:#181818;stroke-width:1.0;" x1="473" x2="820" y1="296.3438" y2="296.3438"/><text fill="#000000" font-family="sans-serif" font-size="11" lengthAdjust="spacing" textLength="146" x="576.5" y="291.7495">GET_DATA(SAMCertifTag)</text><polygon fill="#181818" points="484,319.1484,474,323.1484,484,327.1484,480,323.1484" style="stroke:#181818;stroke-width:1.0;"/><line style="stroke:#181818;stroke-width:1.0;stroke-dasharray:2.0,2.0;" x1="478" x2="825" y1="323.1484" y2="323.1484"/><text fill="#000000" font-family="sans-serif" font-size="11" lengthAdjust="spacing" textLength="62" x="618.5" y="318.5542">SAMCertifs</text><line style="stroke:#181818;stroke-width:1.0;" x1="473" x2="515" y1="349.9531" y2="349.9531"/><line style="stroke:#181818;stroke-width:1.0;" x1="515" x2="515" y1="349.9531" y2="362.9531"/><line style="stroke:#181818;stroke-width:1.0;" x1="474" x2="515" y1="362.9531" y2="362.9531"/><polygon fill="#181818" points="484,358.9531,474,362.9531,484,366.9531,480,362.9531" style="stroke:#181818;stroke-width:1.0;"/><text fill="#000000" font-family="sans-serif" font-size="11" lengthAdjust="spacing" textLength="339" x="480" y="345.3589">initiateInstallation(sessionId, SAMEligibilityInfos, DeviceInfo)</text><rect fill="#FAFAFA" height="20" style="stroke:#181818;stroke-width:0.5;" width="455" x="45" y="375.9531"/><text fill="#000000" font-family="sans-serif" font-size="11" lengthAdjust="spacing" textLength="225" x="160" y="390.1636">[0] End User interactions for user intent</text><rect fill="#FAFAFA" height="20" style="stroke:#181818;stroke-width:0.5;" width="403" x="447" y="406.7578"/><text fill="#000000" font-family="sans-serif" font-size="11" lengthAdjust="spacing" textLength="368" x="464.75" y="420.9683">[1b] Process executeGPSERAMScriptFile(sessionId, localScriptUri)</text><polygon fill="#181818" points="206,447.3672,196,451.3672,206,455.3672,202,451.3672" style="stroke:#181818;stroke-width:1.0;"/><line style="stroke:#181818;stroke-width:1.0;stroke-dasharray:2.0,2.0;" x1="200" x2="472" y1="451.3672" y2="451.3672"/><text fill="#000000" font-family="sans-serif" font-size="11" lengthAdjust="spacing" textLength="238" x="215" y="446.7729">notification(sessionId, aspSDAid, INSTALL)</text><polygon fill="#181818" points="893.5,474.1719,903.5,478.1719,893.5,482.1719,897.5,478.1719" style="stroke:#181818;stroke-width:1.0;"/><line style="stroke:#181818;stroke-width:1.0;stroke-dasharray:2.0,2.0;" x1="473" x2="899.5" y1="478.1719" y2="478.1719"/><text fill="#000000" font-family="sans-serif" font-size="11" lengthAdjust="spacing" textLength="238" x="570.25" y="473.5776">notification(sessionId, aspSDAid, INSTALL)</text><!--SRC=[bLFBRjim4BppAnOwnO02rDSS2X2M7GYmWZHoJaLGqFHAMOGc5PBEerzVKb9SjbPSL2UAkpF37GuVQOVG6EEtvesv9zATi68F3fyFg2LMw9neaIjgDKZK7kr45xVMlAwCzZNzH9ZFanPjF4vNzaOR-MZD7i7R0oOLHGqgqkYy5HxRTt16qOunPYCRc1Uqa2tr3kuTsYo7hC0NaWYywnH9uSdeZ47yZbr0sdcXb0C16b_X5340G8Qp2jAasz1PymgSjDJvZ65WwlKPczA3ow-mvXokFfGkNB0kLCfT3axiwshrhRZ9GHafLDrptbkQiOW9q2nArKKMyDVBpO-2R_X5s5e6tsbBYlnxgHkp4UsC7LilZvAddG3dc1TtnMTKeNGMkIW_HIxAVqopGEkfEJF4qE1O5dPwHuT5z9GyXIoKWxUzvQd1fmQuVBpZ-3C31d-49zBcIOQ6o__-vG6Im8Ii2ncLN7WW5WuVkzgdOPYW7MSRIUVR1xYrHeRJ0hwXF7YylgsNTxmQOh0YXUaiVoVajzPufz6NgGHUnST6pVYVKWhNrGMdi2flwWrVhsSfLt_Swl_mlm00]--></g></svg>