<?xml version="1.0" encoding="us-ascii" standalone="no"?><svg xmlns="http://www.w3.org/2000/svg" xmlns:xlink="http://www.w3.org/1999/xlink" contentStyleType="text/css" height="486px" preserveAspectRatio="none" style="width:954px;height:486px;background:#FFFFFF;" version="1.1" viewBox="0 0 954 486" width="954px" zoomAndPan="magnify"><defs/><g><line style="stroke:#181818;stroke-width:0.5;" x1="43" x2="43" y1="36.2969" y2="479.3672"/><line style="stroke:#181818;stroke-width:0.5;" x1="203" x2="203" y1="36.2969" y2="479.3672"/><line style="stroke:#181818;stroke-width:0.5;" x1="481" x2="481" y1="36.2969" y2="479.3672"/><line style="stroke:#181818;stroke-width:0.5;" x1="833.5" x2="833.5" y1="36.2969" y2="479.3672"/><line style="stroke:#181818;stroke-width:0.5;" x1="913.5" x2="913.5" y1="36.2969" y2="479.3672"/><rect fill="#E3E3E3" height="30.2969" rx="2.5" ry="2.5" style="stroke:#181818;stroke-width:0.5;" width="76" x="5" y="5"/><text fill="#000000" font-family="sans-serif" font-size="14" lengthAdjust="spacing" textLength="62" x="12" y="24.9951">End User</text><rect fill="#E3E3E3" height="30.2969" rx="2.5" ry="2.5" style="stroke:#181818;stroke-width:0.5;" width="150" x="128" y="5"/><text fill="#000000" font-family="sans-serif" font-size="14" lengthAdjust="spacing" textLength="136" x="135" y="24.9951">Device Application</text><rect fill="#E3E3E3" height="30.2969" rx="2.5" ry="2.5" style="stroke:#181818;stroke-width:0.5;" width="42" x="460" y="5"/><text fill="#000000" font-family="sans-serif" font-size="14" lengthAdjust="spacing" textLength="28" x="467" y="24.9951">LAA</text><rect fill="#E3E3E3" height="30.2969" rx="2.5" ry="2.5" style="stroke:#181818;stroke-width:0.5;" width="69" x="799.5" y="5"/><text fill="#000000" font-family="sans-serif" font-size="14" lengthAdjust="spacing" textLength="55" x="806.5" y="24.9951">SAM SD</text><rect fill="#E3E3E3" height="30.2969" rx="2.5" ry="2.5" style="stroke:#181818;stroke-width:0.5;" width="70" x="878.5" y="5"/><text fill="#000000" font-family="sans-serif" font-size="14" lengthAdjust="spacing" textLength="56" x="885.5" y="24.9951">SAM SM</text><polygon fill="#181818" points="191,61.1016,201,65.1016,191,69.1016,195,65.1016" style="stroke:#181818;stroke-width:1.0;"/><line style="stroke:#181818;stroke-width:1.0;" x1="43" x2="197" y1="65.1016" y2="65.1016"/><text fill="#000000" font-family="sans-serif" font-size="11" lengthAdjust="spacing" textLength="136" x="55" y="60.5073">installDeviceApplication</text><polygon fill="#181818" points="469,87.9063,479,91.9063,469,95.9063,473,91.9063" style="stroke:#181818;stroke-width:1.0;"/><line style="stroke:#181818;stroke-width:1.0;" x1="203" x2="475" y1="91.9063" y2="91.9063"/><text fill="#000000" font-family="sans-serif" font-size="11" lengthAdjust="spacing" textLength="254" x="215" y="87.312">install(sessionId, samSMFQDN, localScriptUri)</text><polygon fill="#181818" points="822,114.7109,832,118.7109,822,122.7109,826,118.7109" style="stroke:#181818;stroke-width:1.0;"/><line style="stroke:#181818;stroke-width:1.0;" x1="481" x2="828" y1="118.7109" y2="118.7109"/><text fill="#000000" font-family="sans-serif" font-size="11" lengthAdjust="spacing" textLength="186" x="564.5" y="114.1167">GET_DATA(SAMEligibilityInfoTag)</text><polygon fill="#181818" points="492,141.5156,482,145.5156,492,149.5156,488,145.5156" style="stroke:#181818;stroke-width:1.0;"/><line style="stroke:#181818;stroke-width:1.0;stroke-dasharray:2.0,2.0;" x1="486" x2="833" y1="145.5156" y2="145.5156"/><text fill="#000000" font-family="sans-serif" font-size="11" lengthAdjust="spacing" textLength="96" x="609.5" y="140.9214">SAMEligibilityInfo</text><polygon fill="#181818" points="822,168.3203,832,172.3203,822,176.3203,826,172.3203" style="stroke:#181818;stroke-width:1.0;"/><line style="stroke:#181818;stroke-width:1.0;" x1="481" x2="828" y1="172.3203" y2="172.3203"/><text fill="#000000" font-family="sans-serif" font-size="11" lengthAdjust="spacing" textLength="114" x="600.5" y="167.7261">GET_DATA(CRDTag)</text><polygon fill="#181818" points="492,195.125,482,199.125,492,203.125,488,199.125" style="stroke:#181818;stroke-width:1.0;"/><line style="stroke:#181818;stroke-width:1.0;stroke-dasharray:2.0,2.0;" x1="486" x2="833" y1="199.125" y2="199.125"/><text fill="#000000" font-family="sans-serif" font-size="11" lengthAdjust="spacing" textLength="24" x="645.5" y="194.5308">CRD</text><polygon fill="#181818" points="822,221.9297,832,225.9297,822,229.9297,826,225.9297" style="stroke:#181818;stroke-width:1.0;"/><line style="stroke:#181818;stroke-width:1.0;" x1="481" x2="828" y1="225.9297" y2="225.9297"/><text fill="#000000" font-family="sans-serif" font-size="11" lengthAdjust="spacing" textLength="109" x="603" y="221.3354">GET_DATA(CCITag)</text><polygon fill="#181818" points="492,248.7344,482,252.7344,492,256.7344,488,252.7344" style="stroke:#181818;stroke-width:1.0;"/><line style="stroke:#181818;stroke-width:1.0;stroke-dasharray:2.0,2.0;" x1="486" x2="833" y1="252.7344" y2="252.7344"/><text fill="#000000" font-family="sans-serif" font-size="11" lengthAdjust="spacing" textLength="19" x="648" y="248.1401">CCI</text><polygon fill="#181818" points="822,275.5391,832,279.5391,822,283.5391,826,279.5391" style="stroke:#181818;stroke-width:1.0;"/><line style="stroke:#181818;stroke-width:1.0;" x1="481" x2="828" y1="279.5391" y2="279.5391"/><text fill="#000000" font-family="sans-serif" font-size="11" lengthAdjust="spacing" textLength="146" x="584.5" y="274.9448">GET_DATA(SAMCertifTag)</text><polygon fill="#181818" points="492,302.3438,482,306.3438,492,310.3438,488,306.3438" style="stroke:#181818;stroke-width:1.0;"/><line style="stroke:#181818;stroke-width:1.0;stroke-dasharray:2.0,2.0;" x1="486" x2="833" y1="306.3438" y2="306.3438"/><text fill="#000000" font-family="sans-serif" font-size="11" lengthAdjust="spacing" textLength="62" x="626.5" y="301.7495">SAMCertifs</text><line style="stroke:#181818;stroke-width:1.0;" x1="481" x2="523" y1="333.1484" y2="333.1484"/><line style="stroke:#181818;stroke-width:1.0;" x1="523" x2="523" y1="333.1484" y2="346.1484"/><line style="stroke:#181818;stroke-width:1.0;" x1="482" x2="523" y1="346.1484" y2="346.1484"/><polygon fill="#181818" points="492,342.1484,482,346.1484,492,350.1484,488,346.1484" style="stroke:#181818;stroke-width:1.0;"/><text fill="#000000" font-family="sans-serif" font-size="11" lengthAdjust="spacing" textLength="339" x="488" y="328.5542">initiateInstallation(sessionId, SAMEligibilityInfos, DeviceInfo)</text><rect fill="#FAFAFA" height="20" style="stroke:#181818;stroke-width:0.5;" width="492" x="16" y="359.1484"/><text fill="#000000" font-family="sans-serif" font-size="11" lengthAdjust="spacing" textLength="225" x="149.5" y="373.3589">[0] End User interactions for user intent</text><rect fill="#FAFAFA" height="20" style="stroke:#181818;stroke-width:0.5;" width="403" x="455" y="389.9531"/><text fill="#000000" font-family="sans-serif" font-size="11" lengthAdjust="spacing" textLength="287" x="513.25" y="404.1636">[1b] Process executeGPSERAMFileScript(sessionId, localScriptUri)</text><polygon fill="#181818" points="214,430.5625,204,434.5625,214,438.5625,210,434.5625" style="stroke:#181818;stroke-width:1.0;"/><line style="stroke:#181818;stroke-width:1.0;stroke-dasharray:2.0,2.0;" x1="208" x2="480" y1="434.5625" y2="434.5625"/><text fill="#000000" font-family="sans-serif" font-size="11" lengthAdjust="spacing" textLength="238" x="223" y="429.9683">notification(sessionId, aspSDAid, INSTALL)</text><polygon fill="#181818" points="901.5,457.3672,911.5,461.3672,901.5,465.3672,905.5,461.3672" style="stroke:#181818;stroke-width:1.0;"/><line style="stroke:#181818;stroke-width:1.0;stroke-dasharray:2.0,2.0;" x1="481" x2="907.5" y1="461.3672" y2="461.3672"/><text fill="#000000" font-family="sans-serif" font-size="11" lengthAdjust="spacing" textLength="238" x="578.25" y="456.7729">notification(sessionId, aspSDAid, INSTALL)</text><!--SRC=[bL9DRy8m3BtdLrWzWSIaSTrXKaHXgWHeM-4qeIa45wobIPS41llrIoaVrIXCwodrUtwsdxsY1K9cZ9-RBNCVf0jXHGuEFzUe9OxGER54hcYfGQBsQ1jOt5hpDJ3Qf_IDqEtMADfuR4PoeurSMPCZUBl66g8eGqKQdRV2ut87pYXQC1RrzGAc3cq4TuyGnRWXYS2BGf4KdeoEu058Eo-Kgi0QnXhvGMV8-JcjvSB00KaM7N0YJqU3btZS0MMaKAcqLFYffJOhSyeMKZw2D2xBFlKdxp6Vy5O8zODRD2T5VfVep4p4iirErBjJoKicm2tbtcjyJIf0DpDxoTNCNlB7D3sqdh8RGrG4nw8GgJQpVvIUagUmmQJoTczvtU1B0rm7gYsLFsrWm6nvG60sQ2lP3folW47vlTtFu1WA9SE52bbMSk6iBQoFKUqP1jPUZpN97cOxY7Pdy6oD3Cq2Rb6kFLRhh_V_-ohE-eSzNh_ImABiy5-N5Av8OqxXbOpJ2HyEstMjVOkZ_-N_0000]--></g></svg>