<?xml version="1.0" encoding="us-ascii" standalone="no"?><svg xmlns="http://www.w3.org/2000/svg" xmlns:xlink="http://www.w3.org/1999/xlink" contentStyleType="text/css" height="503px" preserveAspectRatio="none" style="width:943px;height:503px;background:#FFFFFF;" version="1.1" viewBox="0 0 943 503" width="943px" zoomAndPan="magnify"><defs/><g><line style="stroke:#181818;stroke-width:0.5;" x1="69" x2="69" y1="36.2969" y2="496.1719"/><line style="stroke:#181818;stroke-width:0.5;" x1="192" x2="192" y1="36.2969" y2="496.1719"/><line style="stroke:#181818;stroke-width:0.5;" x1="470" x2="470" y1="36.2969" y2="496.1719"/><line style="stroke:#181818;stroke-width:0.5;" x1="822.5" x2="822.5" y1="36.2969" y2="496.1719"/><line style="stroke:#181818;stroke-width:0.5;" x1="902.5" x2="902.5" y1="36.2969" y2="496.1719"/><rect fill="#E3E3E3" height="30.2969" rx="2.5" ry="2.5" style="stroke:#181818;stroke-width:0.5;" width="76" x="31" y="5"/><text fill="#000000" font-family="sans-serif" font-size="14" lengthAdjust="spacing" textLength="62" x="38" y="24.9951">End User</text><rect fill="#E3E3E3" height="30.2969" rx="2.5" ry="2.5" style="stroke:#181818;stroke-width:0.5;" width="150" x="117" y="5"/><text fill="#000000" font-family="sans-serif" font-size="14" lengthAdjust="spacing" textLength="136" x="124" y="24.9951">Device Application</text><rect fill="#E3E3E3" height="30.2969" rx="2.5" ry="2.5" style="stroke:#181818;stroke-width:0.5;" width="42" x="449" y="5"/><text fill="#000000" font-family="sans-serif" font-size="14" lengthAdjust="spacing" textLength="28" x="456" y="24.9951">LAA</text><rect fill="#E3E3E3" height="30.2969" rx="2.5" ry="2.5" style="stroke:#181818;stroke-width:0.5;" width="69" x="788.5" y="5"/><text fill="#000000" font-family="sans-serif" font-size="14" lengthAdjust="spacing" textLength="55" x="795.5" y="24.9951">SAM SD</text><rect fill="#E3E3E3" height="30.2969" rx="2.5" ry="2.5" style="stroke:#181818;stroke-width:0.5;" width="70" x="867.5" y="5"/><text fill="#000000" font-family="sans-serif" font-size="14" lengthAdjust="spacing" textLength="56" x="874.5" y="24.9951">SAM SM</text><rect fill="#FAFAFA" height="33" style="stroke:#181818;stroke-width:0.5;" width="251" x="5" y="51.2969"/><text fill="#000000" font-family="sans-serif" font-size="11" lengthAdjust="spacing" textLength="243" x="9" y="65.5073">"End User install a new Device Application</text><text fill="#000000" font-family="sans-serif" font-size="11" lengthAdjust="spacing" textLength="137" x="13" y="78.312">containing a SAM script"</text><polygon fill="#181818" points="458,104.7109,468,108.7109,458,112.7109,462,108.7109" style="stroke:#181818;stroke-width:1.0;"/><line style="stroke:#181818;stroke-width:1.0;" x1="192" x2="464" y1="108.7109" y2="108.7109"/><text fill="#000000" font-family="sans-serif" font-size="11" lengthAdjust="spacing" textLength="254" x="204" y="104.1167">install(sessionId, samSMFQDN, localScriptUri)</text><polygon fill="#181818" points="811,131.5156,821,135.5156,811,139.5156,815,135.5156" style="stroke:#181818;stroke-width:1.0;"/><line style="stroke:#181818;stroke-width:1.0;" x1="470" x2="817" y1="135.5156" y2="135.5156"/><text fill="#000000" font-family="sans-serif" font-size="11" lengthAdjust="spacing" textLength="186" x="553.5" y="130.9214">GET_DATA(SAMEligibilityInfoTag)</text><polygon fill="#181818" points="481,158.3203,471,162.3203,481,166.3203,477,162.3203" style="stroke:#181818;stroke-width:1.0;"/><line style="stroke:#181818;stroke-width:1.0;stroke-dasharray:2.0,2.0;" x1="475" x2="822" y1="162.3203" y2="162.3203"/><text fill="#000000" font-family="sans-serif" font-size="11" lengthAdjust="spacing" textLength="96" x="598.5" y="157.7261">SAMEligibilityInfo</text><polygon fill="#181818" points="811,185.125,821,189.125,811,193.125,815,189.125" style="stroke:#181818;stroke-width:1.0;"/><line style="stroke:#181818;stroke-width:1.0;" x1="470" x2="817" y1="189.125" y2="189.125"/><text fill="#000000" font-family="sans-serif" font-size="11" lengthAdjust="spacing" textLength="114" x="589.5" y="184.5308">GET_DATA(CRDTag)</text><polygon fill="#181818" points="481,211.9297,471,215.9297,481,219.9297,477,215.9297" style="stroke:#181818;stroke-width:1.0;"/><line style="stroke:#181818;stroke-width:1.0;stroke-dasharray:2.0,2.0;" x1="475" x2="822" y1="215.9297" y2="215.9297"/><text fill="#000000" font-family="sans-serif" font-size="11" lengthAdjust="spacing" textLength="24" x="634.5" y="211.3354">CRD</text><polygon fill="#181818" points="811,238.7344,821,242.7344,811,246.7344,815,242.7344" style="stroke:#181818;stroke-width:1.0;"/><line style="stroke:#181818;stroke-width:1.0;" x1="470" x2="817" y1="242.7344" y2="242.7344"/><text fill="#000000" font-family="sans-serif" font-size="11" lengthAdjust="spacing" textLength="109" x="592" y="238.1401">GET_DATA(CCITag)</text><polygon fill="#181818" points="481,265.5391,471,269.5391,481,273.5391,477,269.5391" style="stroke:#181818;stroke-width:1.0;"/><line style="stroke:#181818;stroke-width:1.0;stroke-dasharray:2.0,2.0;" x1="475" x2="822" y1="269.5391" y2="269.5391"/><text fill="#000000" font-family="sans-serif" font-size="11" lengthAdjust="spacing" textLength="19" x="637" y="264.9448">CCI</text><polygon fill="#181818" points="811,292.3438,821,296.3438,811,300.3438,815,296.3438" style="stroke:#181818;stroke-width:1.0;"/><line style="stroke:#181818;stroke-width:1.0;" x1="470" x2="817" y1="296.3438" y2="296.3438"/><text fill="#000000" font-family="sans-serif" font-size="11" lengthAdjust="spacing" textLength="146" x="573.5" y="291.7495">GET_DATA(SAMCertifTag)</text><polygon fill="#181818" points="481,319.1484,471,323.1484,481,327.1484,477,323.1484" style="stroke:#181818;stroke-width:1.0;"/><line style="stroke:#181818;stroke-width:1.0;stroke-dasharray:2.0,2.0;" x1="475" x2="822" y1="323.1484" y2="323.1484"/><text fill="#000000" font-family="sans-serif" font-size="11" lengthAdjust="spacing" textLength="62" x="615.5" y="318.5542">SAMCertifs</text><line style="stroke:#181818;stroke-width:1.0;" x1="470" x2="512" y1="349.9531" y2="349.9531"/><line style="stroke:#181818;stroke-width:1.0;" x1="512" x2="512" y1="349.9531" y2="362.9531"/><line style="stroke:#181818;stroke-width:1.0;" x1="471" x2="512" y1="362.9531" y2="362.9531"/><polygon fill="#181818" points="481,358.9531,471,362.9531,481,366.9531,477,362.9531" style="stroke:#181818;stroke-width:1.0;"/><text fill="#000000" font-family="sans-serif" font-size="11" lengthAdjust="spacing" textLength="339" x="477" y="345.3589">initiateInstallation(sessionId, SAMEligibilityInfos, DeviceInfo)</text><rect fill="#FAFAFA" height="20" style="stroke:#181818;stroke-width:0.5;" width="455" x="42" y="375.9531"/><text fill="#000000" font-family="sans-serif" font-size="11" lengthAdjust="spacing" textLength="225" x="157" y="390.1636">[0] End User interactions for user intent</text><rect fill="#FAFAFA" height="20" style="stroke:#181818;stroke-width:0.5;" width="403" x="444" y="406.7578"/><text fill="#000000" font-family="sans-serif" font-size="11" lengthAdjust="spacing" textLength="368" x="461.75" y="420.9683">[1b] Process executeGPSERAMScriptFile(sessionId, localScriptUri)</text><polygon fill="#181818" points="203,447.3672,193,451.3672,203,455.3672,199,451.3672" style="stroke:#181818;stroke-width:1.0;"/><line style="stroke:#181818;stroke-width:1.0;stroke-dasharray:2.0,2.0;" x1="197" x2="469" y1="451.3672" y2="451.3672"/><text fill="#000000" font-family="sans-serif" font-size="11" lengthAdjust="spacing" textLength="238" x="212" y="446.7729">notification(sessionId, aspSDAid, INSTALL)</text><polygon fill="#181818" points="890.5,474.1719,900.5,478.1719,890.5,482.1719,894.5,478.1719" style="stroke:#181818;stroke-width:1.0;"/><line style="stroke:#181818;stroke-width:1.0;stroke-dasharray:2.0,2.0;" x1="470" x2="896.5" y1="478.1719" y2="478.1719"/><text fill="#000000" font-family="sans-serif" font-size="11" lengthAdjust="spacing" textLength="238" x="567.25" y="473.5776">notification(sessionId, aspSDAid, INSTALL)</text><!--SRC=[bLFBRjim4BppAnOwnO02rDSS2X2M7GYmWZHoJaLGqFHAMOGc5PBEerzVKb9SjbPSL2UAEpl37GuVQOVG6EEtvesv9zATi68F3fyFg2LMw9neaIjgDKZK7kq4YbjhNbT6-vf-8ipd2KGRZzELlT56FbgpH_3sW4b5KOEAD3flXSVs7PnHj6ECsSW6vWKjP4kzWtk7DiiXA_2590BlEaLIU38wOn2_8mf8Eo-K0W4QN-6qOS2334SLf4ct0Ldp2foqrFcCOI3gvHcRaeFBhx3c7Au-X2vSS2vKobqEJkphQlMjkCb16IbKtNFUMvgns1DQioXL5rdelrvkVXHymo_2rZBOJbjIvDzBtPYDQ6Vi2BqyIfuY0SunB-wApwX2wMpdeloqSr7-Ove5Ma_DcI46W6DPsEaT7HRHK_8Keb0EtlQMfmQV6k3oyOxZpmmO_96TI9id4Hek__kN1qZo4g8kP5HouNrOE7piQf-6OO9sd6qadMyVuDOQ6KuB-8RouF7wjbxUyMg8mOeKfhFydP3VMkETHb-c4dWLtnerutzAALnN5vp2ghofDtozdgLS_N6h_-l_1G00]--></g></svg>