<?xml version="1.0" encoding="us-ascii" standalone="no"?><svg xmlns="http://www.w3.org/2000/svg" xmlns:xlink="http://www.w3.org/1999/xlink" contentStyleType="text/css" height="373px" preserveAspectRatio="none" style="width:1266px;height:373px;background:#FFFFFF;" version="1.1" viewBox="0 0 1266 373" width="1266px" zoomAndPan="magnify"><defs/><g><line style="stroke:#181818;stroke-width:0.5;" x1="72" x2="72" y1="36.2969" y2="366.1484"/><line style="stroke:#181818;stroke-width:0.5;" x1="194" x2="194" y1="36.2969" y2="366.1484"/><line style="stroke:#181818;stroke-width:0.5;" x1="520" x2="520" y1="36.2969" y2="366.1484"/><line style="stroke:#181818;stroke-width:0.5;" x1="585" x2="585" y1="36.2969" y2="366.1484"/><line style="stroke:#181818;stroke-width:0.5;" x1="1045" x2="1045" y1="36.2969" y2="366.1484"/><rect fill="#E3E3E3" height="30.2969" rx="2.5" ry="2.5" style="stroke:#181818;stroke-width:0.5;" width="76" x="34" y="5"/><text fill="#000000" font-family="sans-serif" font-size="14" lengthAdjust="spacing" textLength="62" x="41" y="24.9951">End User</text><rect fill="#E3E3E3" height="30.2969" rx="2.5" ry="2.5" style="stroke:#181818;stroke-width:0.5;" width="148" x="120" y="5"/><text fill="#000000" font-family="sans-serif" font-size="14" lengthAdjust="spacing" textLength="134" x="127" y="24.9951">Device application</text><rect fill="#E3E3E3" height="30.2969" rx="2.5" ry="2.5" style="stroke:#181818;stroke-width:0.5;" width="42" x="499" y="5"/><text fill="#000000" font-family="sans-serif" font-size="14" lengthAdjust="spacing" textLength="28" x="506" y="24.9951">LAA</text><rect fill="#E3E3E3" height="30.2969" rx="2.5" ry="2.5" style="stroke:#181818;stroke-width:0.5;" width="69" x="551" y="5"/><text fill="#000000" font-family="sans-serif" font-size="14" lengthAdjust="spacing" textLength="55" x="558" y="24.9951">SAM SD</text><rect fill="#E3E3E3" height="30.2969" rx="2.5" ry="2.5" style="stroke:#181818;stroke-width:0.5;" width="70" x="1010" y="5"/><text fill="#000000" font-family="sans-serif" font-size="14" lengthAdjust="spacing" textLength="56" x="1017" y="24.9951">SAM SM</text><rect fill="#FAFAFA" height="33" style="stroke:#181818;stroke-width:0.5;" width="257" x="5" y="51.2969"/><text fill="#000000" font-family="sans-serif" font-size="11" lengthAdjust="spacing" textLength="249" x="9" y="65.5073">"End User installs a new Device Application</text><text fill="#000000" font-family="sans-serif" font-size="11" lengthAdjust="spacing" textLength="206" x="13" y="78.312">looking for a SAM script on SAM SM"</text><polygon fill="#181818" points="508,104.7109,518,108.7109,508,112.7109,512,108.7109" style="stroke:#181818;stroke-width:1.0;"/><line style="stroke:#181818;stroke-width:1.0;" x1="194" x2="514" y1="108.7109" y2="108.7109"/><text fill="#000000" font-family="sans-serif" font-size="11" lengthAdjust="spacing" textLength="283" x="215.5" y="104.1167">install(sessionId, samSMFQDN, localScriptUri=null)</text><rect fill="#FAFAFA" height="20" style="stroke:#181818;stroke-width:0.5;" width="195" x="455" y="121.7109"/><text fill="#000000" font-family="sans-serif" font-size="11" lengthAdjust="spacing" textLength="187" x="459" y="135.9214">[0] Process getSAMEligibilityInfos</text><polygon fill="#181818" points="1033,162.3203,1043,166.3203,1033,170.3203,1037,166.3203" style="stroke:#181818;stroke-width:1.0;"/><line style="stroke:#181818;stroke-width:1.0;" x1="520" x2="1039" y1="166.3203" y2="166.3203"/><text fill="#000000" font-family="sans-serif" font-size="11" lengthAdjust="spacing" textLength="501" x="532" y="161.7261">initiateInstallation(sessionId, supportedSamCaIdentifiers, SAMEligibilityInfos, DeviceInfo)</text><line style="stroke:#181818;stroke-width:1.0;" x1="1045" x2="1087" y1="193.125" y2="193.125"/><line style="stroke:#181818;stroke-width:1.0;" x1="1087" x2="1087" y1="193.125" y2="206.125"/><line style="stroke:#181818;stroke-width:1.0;" x1="1046" x2="1087" y1="206.125" y2="206.125"/><polygon fill="#181818" points="1056,202.125,1046,206.125,1056,210.125,1052,206.125" style="stroke:#181818;stroke-width:1.0;"/><text fill="#000000" font-family="sans-serif" font-size="11" lengthAdjust="spacing" textLength="207" x="1052" y="188.5308">retrieveOrGenerateScript(sessionId)</text><polygon fill="#181818" points="531,228.9297,521,232.9297,531,236.9297,527,232.9297" style="stroke:#181818;stroke-width:1.0;"/><line style="stroke:#181818;stroke-width:1.0;stroke-dasharray:2.0,2.0;" x1="525" x2="1044" y1="232.9297" y2="232.9297"/><text fill="#000000" font-family="sans-serif" font-size="11" lengthAdjust="spacing" textLength="203" x="681" y="228.3354">samEligibilityResponse(gpseramUri)</text><rect fill="#FAFAFA" height="20" style="stroke:#181818;stroke-width:0.5;" width="502" x="45" y="245.9297"/><text fill="#000000" font-family="sans-serif" font-size="11" lengthAdjust="spacing" textLength="225" x="183.5" y="260.1401">[1] End User interactions for user intent</text><rect fill="#FAFAFA" height="20" style="stroke:#181818;stroke-width:0.5;" width="576" x="494" y="276.7344"/><text fill="#000000" font-family="sans-serif" font-size="11" lengthAdjust="spacing" textLength="340" x="612" y="290.9448">[2a] Process executeGPSERAMScript(sessionId, gpseramUri)</text><polygon fill="#181818" points="205,317.3438,195,321.3438,205,325.3438,201,321.3438" style="stroke:#181818;stroke-width:1.0;"/><line style="stroke:#181818;stroke-width:1.0;stroke-dasharray:2.0,2.0;" x1="199" x2="519" y1="321.3438" y2="321.3438"/><text fill="#000000" font-family="sans-serif" font-size="11" lengthAdjust="spacing" textLength="302" x="206" y="316.7495">notification(sessionId, samServiceIdentifier, INSTALL)</text><polygon fill="#181818" points="1033,344.1484,1043,348.1484,1033,352.1484,1037,348.1484" style="stroke:#181818;stroke-width:1.0;"/><line style="stroke:#181818;stroke-width:1.0;stroke-dasharray:2.0,2.0;" x1="520" x2="1039" y1="348.1484" y2="348.1484"/><text fill="#000000" font-family="sans-serif" font-size="11" lengthAdjust="spacing" textLength="302" x="631.5" y="343.5542">notification(sessionId, samServiceIdentifier, INSTALL)</text><!--SRC=[dLF1Rfj04Btp5IDEiKIbkiT8hOHg9q8oQHgQKvN3PXcJKPSTEhiuIR- -knZREA6NSeEPUU_DUyCJrGXRPl_8BudxHRPJebfm-Bj7gx54vrI3kQ76WaRhKMQwSX5-lcBhA_g3i5nEMYnxdA-qR5a_2RS8NdgSL0njqP15vqLvR5x1iQ4wWKGY6l0E1TArhU7UeQGPf2lSaKPGNMT8AqziqmJYS-m2iiuhOnmeiFWCuqH-cjWFW64EEffWYOJMAY_1QQ7E0zlXhIhJ10Fe82L9vgZXmnVOv3bS7aWlN70nL8ew0wVQghpwlhh90fLMfXhGxuK-szwOHNAsOq29wmsygt6bdnyVu5PO1qXeq8VQEeH3ZsJ8lnPso-vCNuI8Wj9H_A2AF0LZYxswGVIPnBxhM3pMbMg_gg8EgTEMK5m6CspPw6LyMIH7cdDAGI-4E_mcrsWnfhhV-qGx7Jtw5yoQqDsXwzWwl6YwaAXgWscBDqSn6dQyZT6ovGDC3Y7SiD9nQJUat1- -MZzn3luPH7b0_QHEIU0BwjxZzMsrlilBjyjbC9Ky9Obxndrdx-Wo_Zt1Ulq-ed15A8FjntWoA6wg7_bcivZYdZBuFwo_]--></g></svg>