<?xml version="1.0" encoding="us-ascii" standalone="no"?><svg xmlns="http://www.w3.org/2000/svg" xmlns:xlink="http://www.w3.org/1999/xlink" contentStyleType="text/css" height="490px" preserveAspectRatio="none" style="width:1008px;height:490px;background:#FFFFFF;" version="1.1" viewBox="0 0 1008 490" width="1008px" zoomAndPan="magnify"><defs/><g><line style="stroke:#181818;stroke-width:0.5;" x1="134" x2="134" y1="36.2969" y2="483.3672"/><line style="stroke:#181818;stroke-width:0.5;" x1="257" x2="257" y1="36.2969" y2="483.3672"/><line style="stroke:#181818;stroke-width:0.5;" x1="535" x2="535" y1="36.2969" y2="483.3672"/><line style="stroke:#181818;stroke-width:0.5;" x1="887.5" x2="887.5" y1="36.2969" y2="483.3672"/><line style="stroke:#181818;stroke-width:0.5;" x1="967.5" x2="967.5" y1="36.2969" y2="483.3672"/><rect fill="#E3E3E3" height="30.2969" rx="2.5" ry="2.5" style="stroke:#181818;stroke-width:0.5;" width="76" x="96" y="5"/><text fill="#000000" font-family="sans-serif" font-size="14" lengthAdjust="spacing" textLength="62" x="103" y="24.9951">End User</text><rect fill="#E3E3E3" height="30.2969" rx="2.5" ry="2.5" style="stroke:#181818;stroke-width:0.5;" width="150" x="182" y="5"/><text fill="#000000" font-family="sans-serif" font-size="14" lengthAdjust="spacing" textLength="136" x="189" y="24.9951">Device Application</text><rect fill="#E3E3E3" height="30.2969" rx="2.5" ry="2.5" style="stroke:#181818;stroke-width:0.5;" width="42" x="514" y="5"/><text fill="#000000" font-family="sans-serif" font-size="14" lengthAdjust="spacing" textLength="28" x="521" y="24.9951">LAA</text><rect fill="#E3E3E3" height="30.2969" rx="2.5" ry="2.5" style="stroke:#181818;stroke-width:0.5;" width="69" x="853.5" y="5"/><text fill="#000000" font-family="sans-serif" font-size="14" lengthAdjust="spacing" textLength="55" x="860.5" y="24.9951">SAM SD</text><rect fill="#E3E3E3" height="30.2969" rx="2.5" ry="2.5" style="stroke:#181818;stroke-width:0.5;" width="70" x="932.5" y="5"/><text fill="#000000" font-family="sans-serif" font-size="14" lengthAdjust="spacing" textLength="56" x="939.5" y="24.9951">SAM SM</text><rect fill="#FAFAFA" height="20" style="stroke:#181818;stroke-width:0.5;" width="382" x="5" y="51.2969"/><text fill="#000000" font-family="sans-serif" font-size="11" lengthAdjust="spacing" textLength="374" x="9" y="65.5073">End User install a new Device Application containing a SAM script</text><polygon fill="#181818" points="523,91.9063,533,95.9063,523,99.9063,527,95.9063" style="stroke:#181818;stroke-width:1.0;"/><line style="stroke:#181818;stroke-width:1.0;" x1="257" x2="529" y1="95.9063" y2="95.9063"/><text fill="#000000" font-family="sans-serif" font-size="11" lengthAdjust="spacing" textLength="254" x="269" y="91.312">install(sessionId, samSMFQDN, localScriptUri)</text><polygon fill="#181818" points="876,118.7109,886,122.7109,876,126.7109,880,122.7109" style="stroke:#181818;stroke-width:1.0;"/><line style="stroke:#181818;stroke-width:1.0;" x1="535" x2="882" y1="122.7109" y2="122.7109"/><text fill="#000000" font-family="sans-serif" font-size="11" lengthAdjust="spacing" textLength="186" x="618.5" y="118.1167">GET_DATA(SAMEligibilityInfoTag)</text><polygon fill="#181818" points="546,145.5156,536,149.5156,546,153.5156,542,149.5156" style="stroke:#181818;stroke-width:1.0;"/><line style="stroke:#181818;stroke-width:1.0;stroke-dasharray:2.0,2.0;" x1="540" x2="887" y1="149.5156" y2="149.5156"/><text fill="#000000" font-family="sans-serif" font-size="11" lengthAdjust="spacing" textLength="96" x="663.5" y="144.9214">SAMEligibilityInfo</text><polygon fill="#181818" points="876,172.3203,886,176.3203,876,180.3203,880,176.3203" style="stroke:#181818;stroke-width:1.0;"/><line style="stroke:#181818;stroke-width:1.0;" x1="535" x2="882" y1="176.3203" y2="176.3203"/><text fill="#000000" font-family="sans-serif" font-size="11" lengthAdjust="spacing" textLength="114" x="654.5" y="171.7261">GET_DATA(CRDTag)</text><polygon fill="#181818" points="546,199.125,536,203.125,546,207.125,542,203.125" style="stroke:#181818;stroke-width:1.0;"/><line style="stroke:#181818;stroke-width:1.0;stroke-dasharray:2.0,2.0;" x1="540" x2="887" y1="203.125" y2="203.125"/><text fill="#000000" font-family="sans-serif" font-size="11" lengthAdjust="spacing" textLength="24" x="699.5" y="198.5308">CRD</text><polygon fill="#181818" points="876,225.9297,886,229.9297,876,233.9297,880,229.9297" style="stroke:#181818;stroke-width:1.0;"/><line style="stroke:#181818;stroke-width:1.0;" x1="535" x2="882" y1="229.9297" y2="229.9297"/><text fill="#000000" font-family="sans-serif" font-size="11" lengthAdjust="spacing" textLength="109" x="657" y="225.3354">GET_DATA(CCITag)</text><polygon fill="#181818" points="546,252.7344,536,256.7344,546,260.7344,542,256.7344" style="stroke:#181818;stroke-width:1.0;"/><line style="stroke:#181818;stroke-width:1.0;stroke-dasharray:2.0,2.0;" x1="540" x2="887" y1="256.7344" y2="256.7344"/><text fill="#000000" font-family="sans-serif" font-size="11" lengthAdjust="spacing" textLength="19" x="702" y="252.1401">CCI</text><polygon fill="#181818" points="876,279.5391,886,283.5391,876,287.5391,880,283.5391" style="stroke:#181818;stroke-width:1.0;"/><line style="stroke:#181818;stroke-width:1.0;" x1="535" x2="882" y1="283.5391" y2="283.5391"/><text fill="#000000" font-family="sans-serif" font-size="11" lengthAdjust="spacing" textLength="146" x="638.5" y="278.9448">GET_DATA(SAMCertifTag)</text><polygon fill="#181818" points="546,306.3438,536,310.3438,546,314.3438,542,310.3438" style="stroke:#181818;stroke-width:1.0;"/><line style="stroke:#181818;stroke-width:1.0;stroke-dasharray:2.0,2.0;" x1="540" x2="887" y1="310.3438" y2="310.3438"/><text fill="#000000" font-family="sans-serif" font-size="11" lengthAdjust="spacing" textLength="62" x="680.5" y="305.7495">SAMCertifs</text><line style="stroke:#181818;stroke-width:1.0;" x1="535" x2="577" y1="337.1484" y2="337.1484"/><line style="stroke:#181818;stroke-width:1.0;" x1="577" x2="577" y1="337.1484" y2="350.1484"/><line style="stroke:#181818;stroke-width:1.0;" x1="536" x2="577" y1="350.1484" y2="350.1484"/><polygon fill="#181818" points="546,346.1484,536,350.1484,546,354.1484,542,350.1484" style="stroke:#181818;stroke-width:1.0;"/><text fill="#000000" font-family="sans-serif" font-size="11" lengthAdjust="spacing" textLength="339" x="542" y="332.5542">initiateInstallation(sessionId, SAMEligibilityInfos, DeviceInfo)</text><rect fill="#FAFAFA" height="20" style="stroke:#181818;stroke-width:0.5;" width="455" x="107" y="363.1484"/><text fill="#000000" font-family="sans-serif" font-size="11" lengthAdjust="spacing" textLength="225" x="222" y="377.3589">[0] End User interactions for user intent</text><rect fill="#FAFAFA" height="20" style="stroke:#181818;stroke-width:0.5;" width="403" x="509" y="393.9531"/><text fill="#000000" font-family="sans-serif" font-size="11" lengthAdjust="spacing" textLength="368" x="526.75" y="408.1636">[1b] Process executeGPSERAMScriptFile(sessionId, localScriptUri)</text><polygon fill="#181818" points="268,434.5625,258,438.5625,268,442.5625,264,438.5625" style="stroke:#181818;stroke-width:1.0;"/><line style="stroke:#181818;stroke-width:1.0;stroke-dasharray:2.0,2.0;" x1="262" x2="534" y1="438.5625" y2="438.5625"/><text fill="#000000" font-family="sans-serif" font-size="11" lengthAdjust="spacing" textLength="238" x="277" y="433.9683">notification(sessionId, aspSDAid, INSTALL)</text><polygon fill="#181818" points="955.5,461.3672,965.5,465.3672,955.5,469.3672,959.5,465.3672" style="stroke:#181818;stroke-width:1.0;"/><line style="stroke:#181818;stroke-width:1.0;stroke-dasharray:2.0,2.0;" x1="535" x2="961.5" y1="465.3672" y2="465.3672"/><text fill="#000000" font-family="sans-serif" font-size="11" lengthAdjust="spacing" textLength="238" x="632.25" y="460.7729">notification(sessionId, aspSDAid, INSTALL)</text><!--SRC=[bLDDR-CW4BtpAqO-DP8hRQuvL49nKbcAgxPEJrLL4J9sHal02wGV- -iNRATrDsvMwnDcthp7F1uxsY9KnlYDUMFk9-b6MB47XxyEg2KMw9oeaIkgDKZK7kq8YbjhNfT6-v9-8qod0uWs7iShUwEDt5cpH_3sW8EAeWeLQNJU2e_rEpYZQCiOiv4Dp0jQI1Pw2myERP92ak4BIGJUD8gay6HqmY1-Hn2GTbue1G8qli8f7cGueo1DkWwOaXVWfAN6CmmChInZOp9mUGKhpc5sLBXmmR5GoRSfEB4lY-LTTfE2CbAeigLyi3HXiIUq9b6fp9BGVxrOFsTypI_2rYBOJHjIvDzpNPcrg2Vi0thv8NcA13Z7FB_FlgCAfRETy_pRpdd-ZsdcQ3rLPuRe08ubOQTrj5j4JybJY43UUTjQFZJur02NzfSRVoR0u4jc8cqwY4uNaiSVJyEWX8WB6PLSU1SM3iTT_IKC8xJzR3tfTFC4jzR8S5h0DvG7ZzUtvUAU5rqCbgHmEClV2VdKwkyq-ZAMm5byOrJr_qDAuPeounHM-KsvvglLPCZL7hVul_u_]--></g></svg>