<?xml version="1.0" encoding="us-ascii" standalone="no"?><svg xmlns="http://www.w3.org/2000/svg" xmlns:xlink="http://www.w3.org/1999/xlink" contentStyleType="text/css" height="580px" preserveAspectRatio="none" style="width:1094px;height:580px;background:#FFFFFF;" version="1.1" viewBox="0 0 1094 580" width="1094px" zoomAndPan="magnify"><defs/><g><line style="stroke:#181818;stroke-width:0.5;" x1="43" x2="43" y1="36.2969" y2="573.7813"/><line style="stroke:#181818;stroke-width:0.5;" x1="203" x2="203" y1="36.2969" y2="573.7813"/><line style="stroke:#181818;stroke-width:0.5;" x1="510" x2="510" y1="36.2969" y2="573.7813"/><line style="stroke:#181818;stroke-width:0.5;" x1="719.5" x2="719.5" y1="36.2969" y2="573.7813"/><line style="stroke:#181818;stroke-width:0.5;" x1="873" x2="873" y1="36.2969" y2="573.7813"/><rect fill="#E3E3E3" height="30.2969" rx="2.5" ry="2.5" style="stroke:#181818;stroke-width:0.5;" width="76" x="5" y="5"/><text fill="#000000" font-family="sans-serif" font-size="14" lengthAdjust="spacing" textLength="62" x="12" y="24.9951">End User</text><rect fill="#E3E3E3" height="30.2969" rx="2.5" ry="2.5" style="stroke:#181818;stroke-width:0.5;" width="148" x="129" y="5"/><text fill="#000000" font-family="sans-serif" font-size="14" lengthAdjust="spacing" textLength="134" x="136" y="24.9951">Device application</text><rect fill="#E3E3E3" height="30.2969" rx="2.5" ry="2.5" style="stroke:#181818;stroke-width:0.5;" width="42" x="489" y="5"/><text fill="#000000" font-family="sans-serif" font-size="14" lengthAdjust="spacing" textLength="28" x="496" y="24.9951">LAA</text><rect fill="#E3E3E3" height="30.2969" rx="2.5" ry="2.5" style="stroke:#181818;stroke-width:0.5;" width="69" x="685.5" y="5"/><text fill="#000000" font-family="sans-serif" font-size="14" lengthAdjust="spacing" textLength="55" x="692.5" y="24.9951">SAM SD</text><rect fill="#E3E3E3" height="30.2969" rx="2.5" ry="2.5" style="stroke:#181818;stroke-width:0.5;" width="70" x="838" y="5"/><text fill="#000000" font-family="sans-serif" font-size="14" lengthAdjust="spacing" textLength="56" x="845" y="24.9951">SAM SM</text><polygon fill="#181818" points="191,61.1016,201,65.1016,191,69.1016,195,65.1016" style="stroke:#181818;stroke-width:1.0;"/><line style="stroke:#181818;stroke-width:1.0;" x1="43" x2="197" y1="65.1016" y2="65.1016"/><text fill="#000000" font-family="sans-serif" font-size="11" lengthAdjust="spacing" textLength="136" x="55" y="60.5073">installDeviceApplication</text><polygon fill="#181818" points="498,87.9063,508,91.9063,498,95.9063,502,91.9063" style="stroke:#181818;stroke-width:1.0;"/><line style="stroke:#181818;stroke-width:1.0;" x1="203" x2="504" y1="91.9063" y2="91.9063"/><text fill="#000000" font-family="sans-serif" font-size="11" lengthAdjust="spacing" textLength="283" x="215" y="87.312">install(sessionId, samSMFQDN, localScriptUri=null)</text><polygon fill="#181818" points="708,114.7109,718,118.7109,708,122.7109,712,118.7109" style="stroke:#181818;stroke-width:1.0;"/><line style="stroke:#181818;stroke-width:1.0;" x1="510" x2="714" y1="118.7109" y2="118.7109"/><text fill="#000000" font-family="sans-serif" font-size="11" lengthAdjust="spacing" textLength="186" x="522" y="114.1167">GET_DATA(SAMEligibilityInfoTag)</text><polygon fill="#181818" points="521,141.5156,511,145.5156,521,149.5156,517,145.5156" style="stroke:#181818;stroke-width:1.0;"/><line style="stroke:#181818;stroke-width:1.0;stroke-dasharray:2.0,2.0;" x1="515" x2="719" y1="145.5156" y2="145.5156"/><text fill="#000000" font-family="sans-serif" font-size="11" lengthAdjust="spacing" textLength="96" x="567" y="140.9214">SAMEligibilityInfo</text><polygon fill="#181818" points="708,168.3203,718,172.3203,708,176.3203,712,172.3203" style="stroke:#181818;stroke-width:1.0;"/><line style="stroke:#181818;stroke-width:1.0;" x1="510" x2="714" y1="172.3203" y2="172.3203"/><text fill="#000000" font-family="sans-serif" font-size="11" lengthAdjust="spacing" textLength="114" x="558" y="167.7261">GET_DATA(CRDTag)</text><polygon fill="#181818" points="521,195.125,511,199.125,521,203.125,517,199.125" style="stroke:#181818;stroke-width:1.0;"/><line style="stroke:#181818;stroke-width:1.0;stroke-dasharray:2.0,2.0;" x1="515" x2="719" y1="199.125" y2="199.125"/><text fill="#000000" font-family="sans-serif" font-size="11" lengthAdjust="spacing" textLength="24" x="603" y="194.5308">CRD</text><polygon fill="#181818" points="708,221.9297,718,225.9297,708,229.9297,712,225.9297" style="stroke:#181818;stroke-width:1.0;"/><line style="stroke:#181818;stroke-width:1.0;" x1="510" x2="714" y1="225.9297" y2="225.9297"/><text fill="#000000" font-family="sans-serif" font-size="11" lengthAdjust="spacing" textLength="109" x="560.5" y="221.3354">GET_DATA(CCITag)</text><polygon fill="#181818" points="521,248.7344,511,252.7344,521,256.7344,517,252.7344" style="stroke:#181818;stroke-width:1.0;"/><line style="stroke:#181818;stroke-width:1.0;stroke-dasharray:2.0,2.0;" x1="515" x2="719" y1="252.7344" y2="252.7344"/><text fill="#000000" font-family="sans-serif" font-size="11" lengthAdjust="spacing" textLength="19" x="605.5" y="248.1401">CCI</text><polygon fill="#181818" points="708,275.5391,718,279.5391,708,283.5391,712,279.5391" style="stroke:#181818;stroke-width:1.0;"/><line style="stroke:#181818;stroke-width:1.0;" x1="510" x2="714" y1="279.5391" y2="279.5391"/><text fill="#000000" font-family="sans-serif" font-size="11" lengthAdjust="spacing" textLength="146" x="542" y="274.9448">GET_DATA(SAMCertifTag)</text><polygon fill="#181818" points="521,302.3438,511,306.3438,521,310.3438,517,306.3438" style="stroke:#181818;stroke-width:1.0;"/><line style="stroke:#181818;stroke-width:1.0;stroke-dasharray:2.0,2.0;" x1="515" x2="719" y1="306.3438" y2="306.3438"/><text fill="#000000" font-family="sans-serif" font-size="11" lengthAdjust="spacing" textLength="62" x="584" y="301.7495">SAMCertifs</text><polygon fill="#181818" points="861,329.1484,871,333.1484,861,337.1484,865,333.1484" style="stroke:#181818;stroke-width:1.0;"/><line style="stroke:#181818;stroke-width:1.0;" x1="510" x2="867" y1="333.1484" y2="333.1484"/><text fill="#000000" font-family="sans-serif" font-size="11" lengthAdjust="spacing" textLength="339" x="522" y="328.5542">initiateInstallation(sessionId, SAMEligibilityInfos, DeviceInfo)</text><line style="stroke:#181818;stroke-width:1.0;" x1="873" x2="915" y1="359.9531" y2="359.9531"/><line style="stroke:#181818;stroke-width:1.0;" x1="915" x2="915" y1="359.9531" y2="372.9531"/><line style="stroke:#181818;stroke-width:1.0;" x1="874" x2="915" y1="372.9531" y2="372.9531"/><polygon fill="#181818" points="884,368.9531,874,372.9531,884,376.9531,880,372.9531" style="stroke:#181818;stroke-width:1.0;"/><text fill="#000000" font-family="sans-serif" font-size="11" lengthAdjust="spacing" textLength="207" x="880" y="355.3589">retrieveOrGenerateScript(sessionId)</text><polygon fill="#181818" points="521,395.7578,511,399.7578,521,403.7578,517,399.7578" style="stroke:#181818;stroke-width:1.0;"/><line style="stroke:#181818;stroke-width:1.0;stroke-dasharray:2.0,2.0;" x1="515" x2="872" y1="399.7578" y2="399.7578"/><text fill="#000000" font-family="sans-serif" font-size="11" lengthAdjust="spacing" textLength="203" x="590" y="395.1636">samEligibilityResponse(gpseramUri)</text><polygon fill="#181818" points="54,422.5625,44,426.5625,54,430.5625,50,426.5625" style="stroke:#181818;stroke-width:1.0;"/><line style="stroke:#181818;stroke-width:1.0;" x1="48" x2="509" y1="426.5625" y2="426.5625"/><text fill="#000000" font-family="sans-serif" font-size="11" lengthAdjust="spacing" textLength="219" x="167" y="421.9683">requestUserConsentOrAuthentification</text><rect fill="#FAFAFA" height="20" style="stroke:#181818;stroke-width:0.5;" width="37" x="24" y="439.5625"/><text fill="#000000" font-family="sans-serif" font-size="11" lengthAdjust="spacing" textLength="29" x="28" y="453.7729">allow</text><polygon fill="#181818" points="498,467.3672,508,471.3672,498,475.3672,502,471.3672" style="stroke:#181818;stroke-width:1.0;"/><line style="stroke:#181818;stroke-width:1.0;stroke-dasharray:2.0,2.0;" x1="43" x2="504" y1="471.3672" y2="471.3672"/><rect fill="#FAFAFA" height="20" style="stroke:#181818;stroke-width:0.5;" width="414" x="484" y="484.3672"/><text fill="#000000" font-family="sans-serif" font-size="11" lengthAdjust="spacing" textLength="314" x="534" y="498.5776">Process executeGPSERAMScript(sessionId, gpseramUri)</text><polygon fill="#181818" points="214,524.9766,204,528.9766,214,532.9766,210,528.9766" style="stroke:#181818;stroke-width:1.0;"/><line style="stroke:#181818;stroke-width:1.0;stroke-dasharray:2.0,2.0;" x1="208" x2="509" y1="528.9766" y2="528.9766"/><text fill="#000000" font-family="sans-serif" font-size="11" lengthAdjust="spacing" textLength="238" x="237.5" y="524.3823">notification(sessionId, aspSDAid, INSTALL)</text><polygon fill="#181818" points="861,551.7813,871,555.7813,861,559.7813,865,555.7813" style="stroke:#181818;stroke-width:1.0;"/><line style="stroke:#181818;stroke-width:1.0;stroke-dasharray:2.0,2.0;" x1="510" x2="867" y1="555.7813" y2="555.7813"/><text fill="#000000" font-family="sans-serif" font-size="11" lengthAdjust="spacing" textLength="238" x="572.5" y="551.187">notification(sessionId, aspSDAid, INSTALL)</text><!--SRC=[ZLF1Rjim3BtxAmYVOi0vz5fi0mGx3Gp4RHUdvq5rQ8UOB7cIdBRx-aanQgjhaiqdIUHxvEEZ3xH7Q9Iop-erCZz9zbpp3Wp-6b3MMA8nl4Kcg9LGexIepsGnhTNBdPAsejy8DpT1YbGMpqSw9LLzqAf3i7h082AeGK4IZTNSOli6HWdQHn35Axc79uCwXkKtY7CyKet0-rvGpIqf6SCja3IM2p46sHoBpkOxdWrZCsnXd68NAVOf6DvLvTtt_3u5eMekgbfJRvyqVPM344daWRwFYfLGvRxsUhNxaRCTMxYdbPiPFPCW-rR8HkrucqHJwdAg-paJu1fpjiqlKRdGLMHMN4HcnJ_KPAWjDLT4Z0acYjrBF1ELeoLaoLbPZ3C-ZJuSzESPc1H6j_mbWMWY-qYiqMh28pxeDKhqsp9wD9Cd0NHgrnaRrDkYwPKqk6XxjrgySmOdqUp1l7E-dbjuO_qryn1f7pGRxC4Tg7dVC-rt7jGHTG2-1ITSlPnOlooNGSIL2X5-VEcaCGB_FMfLEq60hrWF5jUFrMhBoh-bfX0AGCT_udsNSlcFSLbJzo4TDtsLCtAduhxQiSqc2Rbc5_uV_mS0]--></g></svg>