<?xml version="1.0" encoding="us-ascii" standalone="no"?><svg xmlns="http://www.w3.org/2000/svg" xmlns:xlink="http://www.w3.org/1999/xlink" contentStyleType="text/css" height="352px" preserveAspectRatio="none" style="width:754px;height:352px;background:#FFFFFF;" version="1.1" viewBox="0 0 754 352" width="754px" zoomAndPan="magnify"><defs/><g><rect fill="none" height="70.7422" style="stroke:#000000;stroke-width:1.5;" width="580.5" x="168" y="257.9297"/><line style="stroke:#181818;stroke-width:0.5;" x1="44" x2="44" y1="36.2969" y2="345.6719"/><line style="stroke:#181818;stroke-width:0.5;" x1="199" x2="199" y1="36.2969" y2="345.6719"/><line style="stroke:#181818;stroke-width:0.5;" x1="465.5" x2="465.5" y1="36.2969" y2="345.6719"/><line style="stroke:#181818;stroke-width:0.5;" x1="584.5" x2="584.5" y1="36.2969" y2="345.6719"/><line style="stroke:#181818;stroke-width:0.5;" x1="703.5" x2="703.5" y1="36.2969" y2="345.6719"/><rect fill="#E3E3E3" height="30.2969" rx="2.5" ry="2.5" style="stroke:#181818;stroke-width:0.5;" width="76" x="6" y="5"/><text fill="#000000" font-family="sans-serif" font-size="14" lengthAdjust="spacing" textLength="62" x="13" y="24.9951">End User</text><rect fill="#E3E3E3" height="30.2969" rx="2.5" ry="2.5" style="stroke:#181818;stroke-width:0.5;" width="42" x="178" y="5"/><text fill="#000000" font-family="sans-serif" font-size="14" lengthAdjust="spacing" textLength="28" x="185" y="24.9951">LAA</text><rect fill="#E3E3E3" height="30.2969" rx="2.5" ry="2.5" style="stroke:#181818;stroke-width:0.5;" width="69" x="431.5" y="5"/><text fill="#000000" font-family="sans-serif" font-size="14" lengthAdjust="spacing" textLength="55" x="438.5" y="24.9951">SAM SD</text><rect fill="#E3E3E3" height="30.2969" rx="2.5" ry="2.5" style="stroke:#181818;stroke-width:0.5;" width="148" x="510.5" y="5"/><text fill="#000000" font-family="sans-serif" font-size="14" lengthAdjust="spacing" textLength="134" x="517.5" y="24.9951">Device application</text><rect fill="#E3E3E3" height="30.2969" rx="2.5" ry="2.5" style="stroke:#181818;stroke-width:0.5;" width="70" x="668.5" y="5"/><text fill="#000000" font-family="sans-serif" font-size="14" lengthAdjust="spacing" textLength="56" x="675.5" y="24.9951">SAM SM</text><polygon fill="#181818" points="187,61.1016,197,65.1016,187,69.1016,191,65.1016" style="stroke:#181818;stroke-width:1.0;"/><line style="stroke:#181818;stroke-width:1.0;" x1="44" x2="193" y1="65.1016" y2="65.1016"/><text fill="#000000" font-family="sans-serif" font-size="11" lengthAdjust="spacing" textLength="131" x="56" y="60.5073">requestMemoryReset()</text><rect fill="#FAFAFA" height="20" style="stroke:#181818;stroke-width:0.5;" width="233" x="5" y="78.1016"/><text fill="#000000" font-family="sans-serif" font-size="11" lengthAdjust="spacing" textLength="225" x="9" y="92.312">[0] End User interactions for user intent</text><line style="stroke:#181818;stroke-width:1.0;" x1="199" x2="241" y1="122.7109" y2="122.7109"/><line style="stroke:#181818;stroke-width:1.0;" x1="241" x2="241" y1="122.7109" y2="135.7109"/><line style="stroke:#181818;stroke-width:1.0;" x1="200" x2="241" y1="135.7109" y2="135.7109"/><polygon fill="#181818" points="210,131.7109,200,135.7109,210,139.7109,206,135.7109" style="stroke:#181818;stroke-width:1.0;"/><text fill="#000000" font-family="sans-serif" font-size="11" lengthAdjust="spacing" textLength="106" x="206" y="118.1167">generateSession()</text><polygon fill="#181818" points="454,158.5156,464,162.5156,454,166.5156,458,162.5156" style="stroke:#181818;stroke-width:1.0;"/><line style="stroke:#181818;stroke-width:1.0;" x1="199" x2="460" y1="162.5156" y2="162.5156"/><text fill="#000000" font-family="sans-serif" font-size="11" lengthAdjust="spacing" textLength="184" x="240.5" y="157.9214">GET_DATA(SAMServicesListTag)</text><polygon fill="#181818" points="210,185.3203,200,189.3203,210,193.3203,206,189.3203" style="stroke:#181818;stroke-width:1.0;"/><line style="stroke:#181818;stroke-width:1.0;stroke-dasharray:2.0,2.0;" x1="204" x2="465" y1="189.3203" y2="189.3203"/><text fill="#000000" font-family="sans-serif" font-size="11" lengthAdjust="spacing" textLength="94" x="285.5" y="184.7261">SAMServicesList</text><polygon fill="#181818" points="454,212.125,464,216.125,454,220.125,458,216.125" style="stroke:#181818;stroke-width:1.0;"/><line style="stroke:#181818;stroke-width:1.0;" x1="199" x2="460" y1="216.125" y2="216.125"/><text fill="#000000" font-family="sans-serif" font-size="11" lengthAdjust="spacing" textLength="243" x="211" y="211.5308">DELETE_SAM_SERVICES(DeleteAllASPSDs)</text><polygon fill="#181818" points="210,238.9297,200,242.9297,210,246.9297,206,242.9297" style="stroke:#181818;stroke-width:1.0;"/><line style="stroke:#181818;stroke-width:1.0;stroke-dasharray:2.0,2.0;" x1="204" x2="465" y1="242.9297" y2="242.9297"/><text fill="#000000" font-family="sans-serif" font-size="11" lengthAdjust="spacing" textLength="103" x="281" y="238.3354">deleteStatusWord</text><path d="M168,257.9297 L246,257.9297 L246,265.0625 L236,275.0625 L168,275.0625 L168,257.9297 " fill="#EEEEEE" style="stroke:#000000;stroke-width:1.5;"/><rect fill="none" height="70.7422" style="stroke:#000000;stroke-width:1.5;" width="580.5" x="168" y="257.9297"/><text fill="#000000" font-family="sans-serif" font-size="13" font-weight="bold" lengthAdjust="spacing" textLength="33" x="183" y="270.9966">loop</text><text fill="#000000" font-family="sans-serif" font-size="11" font-weight="bold" lengthAdjust="spacing" textLength="192" x="261" y="270.1401">[for each SAM service in list]</text><polygon fill="#181818" points="572.5,289.8672,582.5,293.8672,572.5,297.8672,576.5,293.8672" style="stroke:#181818;stroke-width:1.0;"/><line style="stroke:#181818;stroke-width:1.0;stroke-dasharray:2.0,2.0;" x1="199" x2="578.5" y1="293.8672" y2="293.8672"/><text fill="#000000" font-family="sans-serif" font-size="11" lengthAdjust="spacing" textLength="235" x="274.25" y="289.2729">notification(sessionId, aspSDAid, DELETE)</text><polygon fill="#181818" points="691.5,316.6719,701.5,320.6719,691.5,324.6719,695.5,320.6719" style="stroke:#181818;stroke-width:1.0;"/><line style="stroke:#181818;stroke-width:1.0;stroke-dasharray:2.0,2.0;" x1="199" x2="697.5" y1="320.6719" y2="320.6719"/><text fill="#000000" font-family="sans-serif" font-size="11" lengthAdjust="spacing" textLength="322" x="290.25" y="316.0776">notification(SAMSM_FQDN, sessionId, aspSDAid, DELETE)</text><!--SRC=[VL7BJiCm4BpxArOvfL8hqMiFI1P9KQK6GLtWW51aacrguTh1wnRArsEd3mfKv99aTtPsPdQfQeI5jVx5VZ1wLQQLJgw0y6sDfi82YMI3NAl6G8N6epk3uixPzx4rNgXFXE7m16Ain_ETbJMsMZgxGl1kZISThHQebK7oJdfija1Mgve1It9JmpsXIs1m2ScKymH6uA8AyWMkhDlEaD2dFHRGBku6kq6tW_RXUvv1V9ukdk5G0XNDoSehQoWauc1zg1hFCA0wFiO2LTmUNoDeq60KAK9EOJ0ktlSJmGiGMHHudS_BZCzv6ae2tKPLI5D5VYwR7ZlY1aVINp00ndPUVz9c-JIVvsKeb2AVFKokSf5cgD67SsakRaL6FJZ7NtSWuQLVqwDrDMFQshRpZB9QnltXj9s0u3-SWto8i_CL5MJOTMJRQbN9c5TK4y9HY_r_Ihiu9dKV9BKYuofyxVJsJgawRSMVyHX0KOxlifi-_4iLpnArVm40]--></g></svg>