<?xml version="1.0" encoding="us-ascii" standalone="no"?><svg xmlns="http://www.w3.org/2000/svg" xmlns:xlink="http://www.w3.org/1999/xlink" contentStyleType="text/css" height="321px" preserveAspectRatio="none" style="width:759px;height:321px;background:#FFFFFF;" version="1.1" viewBox="0 0 759 321" width="759px" zoomAndPan="magnify"><defs/><g><line style="stroke:#181818;stroke-width:0.5;" x1="44" x2="44" y1="36.2969" y2="314.5391"/><line style="stroke:#181818;stroke-width:0.5;" x1="199" x2="199" y1="36.2969" y2="314.5391"/><line style="stroke:#181818;stroke-width:0.5;" x1="403" x2="403" y1="36.2969" y2="314.5391"/><line style="stroke:#181818;stroke-width:0.5;" x1="480" x2="480" y1="36.2969" y2="314.5391"/><line style="stroke:#181818;stroke-width:0.5;" x1="599" x2="599" y1="36.2969" y2="314.5391"/><line style="stroke:#181818;stroke-width:0.5;" x1="718" x2="718" y1="36.2969" y2="314.5391"/><rect fill="#E3E3E3" height="30.2969" rx="2.5" ry="2.5" style="stroke:#181818;stroke-width:0.5;" width="76" x="6" y="5"/><text fill="#000000" font-family="sans-serif" font-size="14" lengthAdjust="spacing" textLength="62" x="13" y="24.9951">End User</text><rect fill="#E3E3E3" height="30.2969" rx="2.5" ry="2.5" style="stroke:#181818;stroke-width:0.5;" width="42" x="178" y="5"/><text fill="#000000" font-family="sans-serif" font-size="14" lengthAdjust="spacing" textLength="28" x="185" y="24.9951">LAA</text><rect fill="#E3E3E3" height="30.2969" rx="2.5" ry="2.5" style="stroke:#181818;stroke-width:0.5;" width="66" x="370" y="5"/><text fill="#000000" font-family="sans-serif" font-size="14" lengthAdjust="spacing" textLength="52" x="377" y="24.9951">ASP SD</text><rect fill="#E3E3E3" height="30.2969" rx="2.5" ry="2.5" style="stroke:#181818;stroke-width:0.5;" width="69" x="446" y="5"/><text fill="#000000" font-family="sans-serif" font-size="14" lengthAdjust="spacing" textLength="55" x="453" y="24.9951">SAM SD</text><rect fill="#E3E3E3" height="30.2969" rx="2.5" ry="2.5" style="stroke:#181818;stroke-width:0.5;" width="148" x="525" y="5"/><text fill="#000000" font-family="sans-serif" font-size="14" lengthAdjust="spacing" textLength="134" x="532" y="24.9951">Device application</text><rect fill="#E3E3E3" height="30.2969" rx="2.5" ry="2.5" style="stroke:#181818;stroke-width:0.5;" width="70" x="683" y="5"/><text fill="#000000" font-family="sans-serif" font-size="14" lengthAdjust="spacing" textLength="56" x="690" y="24.9951">SAM SM</text><polygon fill="#181818" points="187,61.1016,197,65.1016,187,69.1016,191,65.1016" style="stroke:#181818;stroke-width:1.0;"/><line style="stroke:#181818;stroke-width:1.0;" x1="44" x2="193" y1="65.1016" y2="65.1016"/><text fill="#000000" font-family="sans-serif" font-size="11" lengthAdjust="spacing" textLength="131" x="56" y="60.5073">requestMemoryReset()</text><rect fill="#FAFAFA" height="20" style="stroke:#181818;stroke-width:0.5;" width="233" x="5" y="78.1016"/><text fill="#000000" font-family="sans-serif" font-size="11" lengthAdjust="spacing" textLength="225" x="9" y="92.312">[0] End User interactions for user intent</text><line style="stroke:#181818;stroke-width:1.0;" x1="199" x2="241" y1="122.7109" y2="122.7109"/><line style="stroke:#181818;stroke-width:1.0;" x1="241" x2="241" y1="122.7109" y2="135.7109"/><line style="stroke:#181818;stroke-width:1.0;" x1="200" x2="241" y1="135.7109" y2="135.7109"/><polygon fill="#181818" points="210,131.7109,200,135.7109,210,139.7109,206,135.7109" style="stroke:#181818;stroke-width:1.0;"/><text fill="#000000" font-family="sans-serif" font-size="11" lengthAdjust="spacing" textLength="106" x="206" y="118.1167">generateSession()</text><polygon fill="#181818" points="391,158.5156,401,162.5156,391,166.5156,395,162.5156" style="stroke:#181818;stroke-width:1.0;"/><line style="stroke:#181818;stroke-width:1.0;" x1="199" x2="397" y1="162.5156" y2="162.5156"/><text fill="#000000" font-family="sans-serif" font-size="11" lengthAdjust="spacing" textLength="180" x="211" y="157.9214">GET_DATA(SAMServiceInfoTag)</text><polygon fill="#181818" points="210,185.3203,200,189.3203,210,193.3203,206,189.3203" style="stroke:#181818;stroke-width:1.0;"/><line style="stroke:#181818;stroke-width:1.0;stroke-dasharray:2.0,2.0;" x1="204" x2="402" y1="189.3203" y2="189.3203"/><text fill="#000000" font-family="sans-serif" font-size="11" lengthAdjust="spacing" textLength="178" x="212" y="184.7261">SAMServiceInfo(SAMSM_FQDN)</text><polygon fill="#181818" points="468.5,212.125,478.5,216.125,468.5,220.125,472.5,216.125" style="stroke:#181818;stroke-width:1.0;"/><line style="stroke:#181818;stroke-width:1.0;" x1="199" x2="474.5" y1="216.125" y2="216.125"/><text fill="#000000" font-family="sans-serif" font-size="11" lengthAdjust="spacing" textLength="199" x="240.25" y="211.5308">DELETE_SAM_SERVICES(aspSDAid)</text><polygon fill="#181818" points="210,238.9297,200,242.9297,210,246.9297,206,242.9297" style="stroke:#181818;stroke-width:1.0;"/><line style="stroke:#181818;stroke-width:1.0;stroke-dasharray:2.0,2.0;" x1="204" x2="479.5" y1="242.9297" y2="242.9297"/><text fill="#000000" font-family="sans-serif" font-size="11" lengthAdjust="spacing" textLength="103" x="288.25" y="238.3354">deleteStatusWord</text><polygon fill="#181818" points="587,265.7344,597,269.7344,587,273.7344,591,269.7344" style="stroke:#181818;stroke-width:1.0;"/><line style="stroke:#181818;stroke-width:1.0;stroke-dasharray:2.0,2.0;" x1="199" x2="593" y1="269.7344" y2="269.7344"/><text fill="#000000" font-family="sans-serif" font-size="11" lengthAdjust="spacing" textLength="235" x="281.5" y="265.1401">notification(sessionId, aspSDAid, DELETE)</text><polygon fill="#181818" points="706,292.5391,716,296.5391,706,300.5391,710,296.5391" style="stroke:#181818;stroke-width:1.0;"/><line style="stroke:#181818;stroke-width:1.0;stroke-dasharray:2.0,2.0;" x1="199" x2="712" y1="296.5391" y2="296.5391"/><text fill="#000000" font-family="sans-serif" font-size="11" lengthAdjust="spacing" textLength="322" x="297.5" y="291.9448">notification(SAMSM_FQDN, sessionId, aspSDAid, DELETE)</text><!--SRC=[VL3FJuCm5BxthtZX1CcMkEiE9eqmisGONL4Fnf0A3zO8BRPbElzwsmss6HUvDBptlU_NHfG8bLBsJNqHyovanpLlmU17ZxB058tXDT96r18Ab1Rr1HJLMdqkbBHCV2FCPcSGgInUthHAgcAZLOjWTOzdcqPKs0Y9ncfkiTw1KOqe2P0WaIKy6jG1JAyXM54Qm1oqTs5iYgtIkpKQj65475fxRL1Rr0Ve14xt1FptSlKAumY43ySBAvGqhX4D_JYLbg13xVa8SLHUtJzpg56YDybSJ-xG2m_xWB9xOB4tU9jaUKmp6ZAQCjHRKU1ILYhZTKIEiEcHypTgVvJcYuVuBW8Wv93Q2xZ5810dgoHBSZV8MR9-MjuaBEIcOp4LPUHg6v4dZH8RTAujjxrvLhhqVUsDU-8OlJZmhcj4mNqXNiIb5zNm7vf3tcKvWL5eCjY8pgdsokcVyrEc2Vn7zGC0]--></g></svg>