<?xml version="1.0" encoding="us-ascii" standalone="no"?><svg xmlns="http://www.w3.org/2000/svg" xmlns:xlink="http://www.w3.org/1999/xlink" contentStyleType="text/css" height="352px" preserveAspectRatio="none" style="width:750px;height:352px;background:#FFFFFF;" version="1.1" viewBox="0 0 750 352" width="750px" zoomAndPan="magnify"><defs/><g><rect fill="none" height="70.7422" style="stroke:#000000;stroke-width:1.5;" width="580.5" x="164" y="257.9297"/><line style="stroke:#181818;stroke-width:0.5;" x1="48" x2="48" y1="36.2969" y2="345.6719"/><line style="stroke:#181818;stroke-width:0.5;" x1="195" x2="195" y1="36.2969" y2="345.6719"/><line style="stroke:#181818;stroke-width:0.5;" x1="461.5" x2="461.5" y1="36.2969" y2="345.6719"/><line style="stroke:#181818;stroke-width:0.5;" x1="580.5" x2="580.5" y1="36.2969" y2="345.6719"/><line style="stroke:#181818;stroke-width:0.5;" x1="699.5" x2="699.5" y1="36.2969" y2="345.6719"/><rect fill="#E3E3E3" height="30.2969" rx="2.5" ry="2.5" style="stroke:#181818;stroke-width:0.5;" width="76" x="10" y="5"/><text fill="#000000" font-family="sans-serif" font-size="14" lengthAdjust="spacing" textLength="62" x="17" y="24.9951">End User</text><rect fill="#E3E3E3" height="30.2969" rx="2.5" ry="2.5" style="stroke:#181818;stroke-width:0.5;" width="42" x="174" y="5"/><text fill="#000000" font-family="sans-serif" font-size="14" lengthAdjust="spacing" textLength="28" x="181" y="24.9951">LAA</text><rect fill="#E3E3E3" height="30.2969" rx="2.5" ry="2.5" style="stroke:#181818;stroke-width:0.5;" width="69" x="427.5" y="5"/><text fill="#000000" font-family="sans-serif" font-size="14" lengthAdjust="spacing" textLength="55" x="434.5" y="24.9951">SAM SD</text><rect fill="#E3E3E3" height="30.2969" rx="2.5" ry="2.5" style="stroke:#181818;stroke-width:0.5;" width="148" x="506.5" y="5"/><text fill="#000000" font-family="sans-serif" font-size="14" lengthAdjust="spacing" textLength="134" x="513.5" y="24.9951">Device application</text><rect fill="#E3E3E3" height="30.2969" rx="2.5" ry="2.5" style="stroke:#181818;stroke-width:0.5;" width="70" x="664.5" y="5"/><text fill="#000000" font-family="sans-serif" font-size="14" lengthAdjust="spacing" textLength="56" x="671.5" y="24.9951">SAM SM</text><polygon fill="#181818" points="183,61.1016,193,65.1016,183,69.1016,187,65.1016" style="stroke:#181818;stroke-width:1.0;"/><line style="stroke:#181818;stroke-width:1.0;" x1="48" x2="189" y1="65.1016" y2="65.1016"/><text fill="#000000" font-family="sans-serif" font-size="11" lengthAdjust="spacing" textLength="123" x="60" y="60.5073">requestMemoryReset</text><rect fill="#FAFAFA" height="20" style="stroke:#181818;stroke-width:0.5;" width="233" x="5" y="78.1016"/><text fill="#000000" font-family="sans-serif" font-size="11" lengthAdjust="spacing" textLength="225" x="9" y="92.312">[0] End User interactions for user intent</text><line style="stroke:#181818;stroke-width:1.0;" x1="195" x2="237" y1="122.7109" y2="122.7109"/><line style="stroke:#181818;stroke-width:1.0;" x1="237" x2="237" y1="122.7109" y2="135.7109"/><line style="stroke:#181818;stroke-width:1.0;" x1="196" x2="237" y1="135.7109" y2="135.7109"/><polygon fill="#181818" points="206,131.7109,196,135.7109,206,139.7109,202,135.7109" style="stroke:#181818;stroke-width:1.0;"/><text fill="#000000" font-family="sans-serif" font-size="11" lengthAdjust="spacing" textLength="106" x="202" y="118.1167">generateSession()</text><polygon fill="#181818" points="450,158.5156,460,162.5156,450,166.5156,454,162.5156" style="stroke:#181818;stroke-width:1.0;"/><line style="stroke:#181818;stroke-width:1.0;" x1="195" x2="456" y1="162.5156" y2="162.5156"/><text fill="#000000" font-family="sans-serif" font-size="11" lengthAdjust="spacing" textLength="184" x="236.5" y="157.9214">GET_DATA(SAMServicesListTag)</text><polygon fill="#181818" points="206,185.3203,196,189.3203,206,193.3203,202,189.3203" style="stroke:#181818;stroke-width:1.0;"/><line style="stroke:#181818;stroke-width:1.0;stroke-dasharray:2.0,2.0;" x1="200" x2="461" y1="189.3203" y2="189.3203"/><text fill="#000000" font-family="sans-serif" font-size="11" lengthAdjust="spacing" textLength="94" x="281.5" y="184.7261">SAMServicesList</text><polygon fill="#181818" points="450,212.125,460,216.125,450,220.125,454,216.125" style="stroke:#181818;stroke-width:1.0;"/><line style="stroke:#181818;stroke-width:1.0;" x1="195" x2="456" y1="216.125" y2="216.125"/><text fill="#000000" font-family="sans-serif" font-size="11" lengthAdjust="spacing" textLength="243" x="207" y="211.5308">DELETE_SAM_SERVICES(DeleteAllASPSDs)</text><polygon fill="#181818" points="206,238.9297,196,242.9297,206,246.9297,202,242.9297" style="stroke:#181818;stroke-width:1.0;"/><line style="stroke:#181818;stroke-width:1.0;stroke-dasharray:2.0,2.0;" x1="200" x2="461" y1="242.9297" y2="242.9297"/><text fill="#000000" font-family="sans-serif" font-size="11" lengthAdjust="spacing" textLength="103" x="277" y="238.3354">deleteStatusWord</text><path d="M164,257.9297 L242,257.9297 L242,265.0625 L232,275.0625 L164,275.0625 L164,257.9297 " fill="#EEEEEE" style="stroke:#000000;stroke-width:1.5;"/><rect fill="none" height="70.7422" style="stroke:#000000;stroke-width:1.5;" width="580.5" x="164" y="257.9297"/><text fill="#000000" font-family="sans-serif" font-size="13" font-weight="bold" lengthAdjust="spacing" textLength="33" x="179" y="270.9966">loop</text><text fill="#000000" font-family="sans-serif" font-size="11" font-weight="bold" lengthAdjust="spacing" textLength="192" x="257" y="270.1401">[for each SAM service in list]</text><polygon fill="#181818" points="568.5,289.8672,578.5,293.8672,568.5,297.8672,572.5,293.8672" style="stroke:#181818;stroke-width:1.0;"/><line style="stroke:#181818;stroke-width:1.0;stroke-dasharray:2.0,2.0;" x1="195" x2="574.5" y1="293.8672" y2="293.8672"/><text fill="#000000" font-family="sans-serif" font-size="11" lengthAdjust="spacing" textLength="299" x="238.25" y="289.2729">notification(sessionId, samServiceIdentifier, DELETE)</text><polygon fill="#181818" points="687.5,316.6719,697.5,320.6719,687.5,324.6719,691.5,320.6719" style="stroke:#181818;stroke-width:1.0;"/><line style="stroke:#181818;stroke-width:1.0;stroke-dasharray:2.0,2.0;" x1="195" x2="693.5" y1="320.6719" y2="320.6719"/><text fill="#000000" font-family="sans-serif" font-size="11" lengthAdjust="spacing" textLength="386" x="254.25" y="316.0776">notification(SAMSM_FQDN, sessionId, samServiceIdentifier, DELETE)</text><!--SRC=[ZL7BJiCm4BpxArOvDL8hqMiFI159KQK6GHtWW51bacrgaTZ5wnRArxDE7nJe0LyixuvdPsQNka9OMEjVx8UWLsrMogaM2D_MQ4hCaKZLc3IwDb2YyUZEe1BdxFlO6Y_r9y9mU08nrkFvJckDBPVEjWZUhV6aq-W5DjeWUQSyrbiWs-XAW8WoKy4zeOjWS0dHD4aY684BAiZds5gtdI6X5unrOJBO3ReTi0_VlmM4ytJn38SIw61DbLvRGvo7W_MXQhn0HdLyGZ1Lc1sk4THeC4YKd19_xCN7VYIJ76GQv5rdnJnDYgJ79ObkeqkagIPVg3eMHzpWIFeB1Y34pkbFsZIRPaKsvy9SPhE7oLKcUoasw7bPJI9lPKendEElEf3qog_fqRfAYCRQLUSPLRaCytcndG3spyiWpt5sleA25BkEMgqQNQgGLr33uUZ5_jsZNHoJgW-ashsPISL9CWPTVwyzFgNjTEP_g48O-Nnybzumrtzfmxg2foy0]--></g></svg>