<?xml version="1.0" encoding="UTF-8" standalone="no"?><svg xmlns="http://www.w3.org/2000/svg" xmlns:xlink="http://www.w3.org/1999/xlink" contentStyleType="text/css" height="322px" preserveAspectRatio="none" style="width:829px;height:322px;background:#FFFFFF;" version="1.1" viewBox="0 0 829 322" width="829px" zoomAndPan="magnify"><defs/><g><line style="stroke:#181818;stroke-width:0.5;stroke-dasharray:5.0,5.0;" x1="43" x2="43" y1="36.2969" y2="315.5391"/><line style="stroke:#181818;stroke-width:0.5;stroke-dasharray:5.0,5.0;" x1="286" x2="286" y1="36.2969" y2="315.5391"/><line style="stroke:#181818;stroke-width:0.5;stroke-dasharray:5.0,5.0;" x1="484" x2="484" y1="36.2969" y2="315.5391"/><line style="stroke:#181818;stroke-width:0.5;stroke-dasharray:5.0,5.0;" x1="561" x2="561" y1="36.2969" y2="315.5391"/><line style="stroke:#181818;stroke-width:0.5;stroke-dasharray:5.0,5.0;" x1="674" x2="674" y1="36.2969" y2="315.5391"/><line style="stroke:#181818;stroke-width:0.5;stroke-dasharray:5.0,5.0;" x1="788" x2="788" y1="36.2969" y2="315.5391"/><rect fill="#E3E3E3" height="30.2969" rx="2.5" ry="2.5" style="stroke:#181818;stroke-width:0.5;" width="77" x="5" y="5"/><text fill="#000000" font-family="sans-serif" font-size="14" lengthAdjust="spacing" textLength="63" x="12" y="24.9951">End User</text><rect fill="#E3E3E3" height="30.2969" rx="2.5" ry="2.5" style="stroke:#181818;stroke-width:0.5;" width="39" x="267" y="5"/><text fill="#000000" font-family="sans-serif" font-size="14" lengthAdjust="spacing" textLength="25" x="274" y="24.9951">LAA</text><rect fill="#E3E3E3" height="30.2969" rx="2.5" ry="2.5" style="stroke:#181818;stroke-width:0.5;" width="65" x="452" y="5"/><text fill="#000000" font-family="sans-serif" font-size="14" lengthAdjust="spacing" textLength="51" x="459" y="24.9951">ASP SD</text><rect fill="#E3E3E3" height="30.2969" rx="2.5" ry="2.5" style="stroke:#181818;stroke-width:0.5;" width="68" x="527" y="5"/><text fill="#000000" font-family="sans-serif" font-size="14" lengthAdjust="spacing" textLength="54" x="534" y="24.9951">SAM SD</text><rect fill="#E3E3E3" height="30.2969" rx="2.5" ry="2.5" style="stroke:#181818;stroke-width:0.5;" width="139" x="605" y="5"/><text fill="#000000" font-family="sans-serif" font-size="14" lengthAdjust="spacing" textLength="125" x="612" y="24.9951">Device application</text><rect fill="#E3E3E3" height="30.2969" rx="2.5" ry="2.5" style="stroke:#181818;stroke-width:0.5;" width="69" x="754" y="5"/><text fill="#000000" font-family="sans-serif" font-size="14" lengthAdjust="spacing" textLength="55" x="761" y="24.9951">SAM SM</text><polygon fill="#181818" points="274.5,61.1016,284.5,65.1016,274.5,69.1016,278.5,65.1016" style="stroke:#181818;stroke-width:1.0;"/><line style="stroke:#181818;stroke-width:1.0;" x1="43.5" x2="280.5" y1="65.1016" y2="65.1016"/><text fill="#000000" font-family="sans-serif" font-size="11" lengthAdjust="spacing" textLength="199" x="65.5" y="60.5073">deleteSAMService(name,aspSDAid)</text><polygon fill="#181818" points="54.5,87.9063,44.5,91.9063,54.5,95.9063,50.5,91.9063" style="stroke:#181818;stroke-width:1.0;"/><line style="stroke:#181818;stroke-width:1.0;" x1="48.5" x2="285.5" y1="91.9063" y2="91.9063"/><text fill="#000000" font-family="sans-serif" font-size="11" lengthAdjust="spacing" textLength="219" x="55.5" y="87.312">requestUserConsentOrAuthentification</text><rect fill="#FAFAFA" height="20" style="stroke:#181818;stroke-width:0.5;" width="37" x="25" y="104.9063"/><text fill="#000000" font-family="sans-serif" font-size="11" lengthAdjust="spacing" textLength="29" x="29" y="119.1167">allow</text><polygon fill="#181818" points="274.5,132.7109,284.5,136.7109,274.5,140.7109,278.5,136.7109" style="stroke:#181818;stroke-width:1.0;"/><line style="stroke:#181818;stroke-width:1.0;stroke-dasharray:2.0,2.0;" x1="43.5" x2="280.5" y1="136.7109" y2="136.7109"/><polygon fill="#181818" points="472.5,159.5156,482.5,163.5156,472.5,167.5156,476.5,163.5156" style="stroke:#181818;stroke-width:1.0;"/><line style="stroke:#181818;stroke-width:1.0;" x1="286.5" x2="478.5" y1="163.5156" y2="163.5156"/><text fill="#000000" font-family="sans-serif" font-size="11" lengthAdjust="spacing" textLength="174" x="298.5" y="158.9214">GET_DATA(SAMServiceInfoTag)</text><polygon fill="#181818" points="297.5,186.3203,287.5,190.3203,297.5,194.3203,293.5,190.3203" style="stroke:#181818;stroke-width:1.0;"/><line style="stroke:#181818;stroke-width:1.0;stroke-dasharray:2.0,2.0;" x1="291.5" x2="483.5" y1="190.3203" y2="190.3203"/><text fill="#000000" font-family="sans-serif" font-size="11" lengthAdjust="spacing" textLength="173" x="299" y="185.7261">SAMServiceInfo(SAMSM_FQDN)</text><polygon fill="#181818" points="549,213.125,559,217.125,549,221.125,553,217.125" style="stroke:#181818;stroke-width:1.0;"/><line style="stroke:#181818;stroke-width:1.0;" x1="286.5" x2="555" y1="217.125" y2="217.125"/><text fill="#000000" font-family="sans-serif" font-size="11" lengthAdjust="spacing" textLength="195" x="326.25" y="212.5308">DELETE_SAM_SERVICES(aspSDAid)</text><polygon fill="#181818" points="297.5,239.9297,287.5,243.9297,297.5,247.9297,293.5,243.9297" style="stroke:#181818;stroke-width:1.0;"/><line style="stroke:#181818;stroke-width:1.0;stroke-dasharray:2.0,2.0;" x1="291.5" x2="560" y1="243.9297" y2="243.9297"/><text fill="#000000" font-family="sans-serif" font-size="11" lengthAdjust="spacing" textLength="100" x="373.75" y="239.3354">deleteStatusWord</text><polygon fill="#181818" points="662.5,266.7344,672.5,270.7344,662.5,274.7344,666.5,270.7344" style="stroke:#181818;stroke-width:1.0;"/><line style="stroke:#181818;stroke-width:1.0;stroke-dasharray:2.0,2.0;" x1="286.5" x2="668.5" y1="270.7344" y2="270.7344"/><text fill="#000000" font-family="sans-serif" font-size="11" lengthAdjust="spacing" textLength="237" x="362" y="266.1401">notification(sessionId, aspSDAid, DELETE)</text><polygon fill="#181818" points="776.5,293.5391,786.5,297.5391,776.5,301.5391,780.5,297.5391" style="stroke:#181818;stroke-width:1.0;"/><line style="stroke:#181818;stroke-width:1.0;stroke-dasharray:2.0,2.0;" x1="286.5" x2="782.5" y1="297.5391" y2="297.5391"/><text fill="#000000" font-family="sans-serif" font-size="11" lengthAdjust="spacing" textLength="323" x="376" y="292.9448">notification(SAMSM_FQDN, sessionId, aspSDAid, DELETE)</text><!--SRC=[VPBDReCm48JlVefLJY318LTKLR82gI8b_OEsH-J2XbXrR6gRfEtJrqu9K3Ng2UETsMztv1sl4RPAsLVrGSmRbotJR0y6tpkK5MxG6DOW5RoHKA6qg2-egDRgk5JIvlmBOJwVIAIoUBcoLr9LEwts25PtEAa8laN19HghcSNc4umIl2P0PfciuScWda5y3RCrfJD8e4Q15dEwoL4VU8M1P7kCc6dpbF8w9Cxeb2V7w4z0- -6DzRyB9OtRxKxJpkxSWMzvnInNacW_FwW3weav0IQ4EfwwNiNnf4864itl8KyzvoOhofGMD1WdNCcjAbWJaa4MEu-t9l1RTJ9jokL3UXi24FApimUuGWz8itLMPAMxAFFiyNcroF9WsDw5TbQEZ3unosndNfIkXuXyunGz75ZRYZu53t4v3Aa4nhqAzrtL4Pn1KJz6E6rr8c_-sCUT8lYlrJS0]--></g></svg>